<svg xmlns="http://www.w3.org/2000/svg" width="678.48" height="160.17" viewBox="0 0 678.48 160.17"><path d="M475.93,194.38l-9.76,9.3c3.06,5.75,6.13,11,8.65,16.45,2.12,4.63,3.38,9.55,1.72,14.76-2.12,6.67-8.11,11-14.66,10.31a14,14,0,0,1-12-13.25,31.34,31.34,0,0,1,2-11.43c2.15-5.53,5.17-10.71,8.17-16.72l-8.21-9.07c-4.55,3.28-8.75,6.54-13.19,9.44-14.5,9.48-30.37,14.76-47.82,14.19A74.76,74.76,0,0,1,350.14,205c-6.52-4.5-10.73-10.78-9.26-19.11,1.62-9.14,13.08-15,23.05-11.74,3.79,1.22,7.22,3.61,10.72,5.63,2,1.13,3.7,2.61,5.47,3.88,19.24-13.79,41.72-13.85,63.82-.3,2.6,1.59,5.06,3.4,8.17,5.51,1.3-1.5,2.7-3.1,4.08-4.71s2.61-3.1,3.89-4.63c-2.76-5.49-5.58-10.84-8.16-16.3-2.23-4.7-3.13-9.72-1.64-14.81a13.78,13.78,0,0,1,16.22-9.91c6.89,1.63,12.5,10,10.43,17.17-1.88,6.49-5.16,12.58-7.94,18.79a37.44,37.44,0,0,1-3,4.65l9.57,10.18L494.1,175c-4.43-7.66-8.86-14.75-12.71-22.14-3.3-6.34-5.59-13.19-4.44-20.49,1.68-10.67,8.3-17.55,18.18-21.12s19.37-1.74,27.52,5c9.29,7.71,12.27,17.59,7.59,29.44-3.41,8.65-8.57,16.62-13,24.86-.65,1.22-1.52,2.31-2.57,3.88l19.06,14.67,9.68-9.17c-3.18-6.28-6.51-12-8.95-18a23.56,23.56,0,0,1-1.68-11.08,13.75,13.75,0,0,1,15.06-12.47c7.3.8,12.81,7.81,12.26,15.83-.54,7.86-4.59,14.39-8.25,21.05-.73,1.33-1.56,2.61-2.51,4.19l8.52,9.5A70.14,70.14,0,0,1,584,175.62c10.24-2.69,20.62-3.91,30.8-.4,5.16,1.78,9.83,5,15.48,7.92,2.05-1.43,5-3.57,8-5.61,6.31-4.26,13.07-5.33,20.31-2.71,9.54,3.47,13.08,12.57,8.52,21.58-3.56,7-9.87,10.72-16.62,13.88-31.33,14.71-60,8.76-86.85-11.21-1.83-1.36-3.59-2.81-5.66-4.43l-8.42,9.08c2.92,5.8,5.8,11.13,8.3,16.63,2.13,4.7,3.14,9.71,1.54,14.82-2.23,7.14-9.38,11.46-16,9.85-7.16-1.76-12.68-10-10.6-17.43,1.75-6.26,4.86-12.16,7.52-18.15a46.88,46.88,0,0,1,3.49-5.49l-10-9.55-17,12.9c3.33,5.77,6.8,11.09,9.55,16.75a70.25,70.25,0,0,1,5.16,14.21c3.72,15.4-8.18,26.9-18.89,30.13-17.56,5.31-36.76-8-35.74-25.45.34-5.77,2.43-11.66,4.8-17,2.86-6.46,6.88-12.41,10.58-18.91C487.15,203.05,481.74,198.86,475.93,194.38Zm-27.62-3.12-15-8.83c-.73.92-1.12,1.39-1.49,1.88-7.77,10-18.05,13.88-30.53,12.36-10.95-1.33-20.07-6.49-28.84-12.84a32.55,32.55,0,0,0-12.92-5.78c-8.5-1.5-15.58,5-14.33,12.33,1,6.07,5.14,10,10.27,13C387.13,222,421.71,214.81,448.31,191.26Zm128-8.82-15.22,9c3.23,2.51,5.54,4.47,8,6.2,26.77,18.64,54.7,22.24,84.09,6.31,4.33-2.34,8-5.37,10.19-9.92,3-6.24.89-12-5.44-14.76-5.7-2.51-11.19-1.83-16.32,1.42-3.74,2.38-7.19,5.23-10.92,7.62C614.33,198.84,591.19,202.88,576.35,182.44Zm-64.9-11.76c5.44-6.23,13-19.89,15.2-27.49,3.63-12.49-2.07-23.53-14.4-27.89-15.89-5.6-33.43,7.42-30.91,23.2,2,12.45,9.19,22.44,16.36,32.85l3.59-4c-3.38-7.23-6.75-13.87-9.59-20.73a15.22,15.22,0,0,1,.68-13.25c3.34-6.33,9.81-9.26,15.87-7.25,6.53,2.18,11.66,9.6,9.83,16.11a99.08,99.08,0,0,1-8.2,19.86C507.87,165.85,507.64,168.2,511.45,170.68Zm1.82,40c-.92.86-1.4,1.28-1.85,1.73-4.15,4.13-4.11,4.11-1.24,9.08,3.62,6.27,7.16,12.58,8.09,19.94a15.17,15.17,0,0,1-12.5,16.51c-6.43,1-13.38-4.71-14.81-12-1.07-5.44.65-10.33,2.89-15,2.32-4.88,5.13-9.52,7.8-14.4l-6-6.31c-3.24,5.52-6.63,10.44-9.12,15.77-2.28,4.88-4.46,10.1-5.18,15.37-1.92,14,12.71,26.45,27.1,23.6C520,262.62,531,252.32,527,237.15,524.35,227.47,519,219.19,513.27,210.67Zm68.33-29.35c8.53,13.8,28.6,14.41,43.23,5C617.27,176.46,596,175,581.6,181.32Zm-196.76,4.94c14.16,9.25,34.4,9.12,43.27-4.9C414.3,175.15,392.79,176.23,384.84,186.26Zm160.59-11.07,2.25.09c2.66-6.77,5.72-13.42,7.84-20.35,1.3-4.29-.71-8.26-4.54-10.88a7.46,7.46,0,0,0-8.61-.38A10.83,10.83,0,0,0,537,154.25a7.87,7.87,0,0,0,.52,2.6C540.09,163,542.77,169.08,545.43,175.19ZM462,175.14l1.63-.13c1.8-3.18,4-6.21,5.31-9.57,1.64-4.18,3.22-8.57,3.65-13,.49-5-4.1-9.56-8.69-9.93-4.41-.36-8.73,3.39-9.64,8.53a8.3,8.3,0,0,0,0,4.11C456.71,161.87,459.4,168.49,462,175.14Zm41.31-12.71,2.36,0c2.68-6.47,5.68-12.83,7.93-19.44,1.48-4.35-.89-9.23-4.54-11.56a7.82,7.82,0,0,0-9.23,0c-3.69,2.46-6,7.15-4.46,11.55C497.65,149.61,500.65,156,503.33,162.43Zm-40.27,45.66c-3.81,6.93-8,13.15-9,20.74-.9,6.85,4.14,12.53,10.37,11.93,5.21-.5,9.34-6.47,8.22-12.52C471.3,220.92,467.63,214.6,463.06,208.09Zm84.34.23-1.48.05c-2.42,4.66-5.08,9.23-7.16,14a22.64,22.64,0,0,0-1.75,8.44c-.08,5.34,4.26,9.83,9,9.94,5,.12,9.14-3.77,9.64-9.3a10.94,10.94,0,0,0-.41-4.88C552.77,220.46,550,214.41,547.4,208.32ZM505.63,221l-1.48.12c-1.7,3-3.64,5.8-5,8.89a58.57,58.57,0,0,0-4,11c-1.24,5.52,2.93,11.54,8.07,12.44,4.65.82,9.64-3.27,10.56-8.86a8.94,8.94,0,0,0-.24-4.49C511,233.74,508.29,227.41,505.63,221Zm8.44-17.15,15.86-12.17L512.05,178l-4.14,5.61c5.06,5.74,5.06,5.74.06,12.09Zm-12.44-8.07c-1.56-2.27-4.07-4.32-4-6.33s2.6-4,4.13-6.08l-4.47-5.29-17.47,13.64,15.41,11.9Zm-38.26-13-8.28,9,8,8.53c3.08-3,6.06-5.78,8.7-8.3Zm83.24,17.56,8-8.61-8.06-8.62-9,8.62Zm-48.11,6.27,6.12,6.5,6-6.31L504.83,199C502.62,201.62,500.72,203.94,498.5,206.63Zm6.38-26.42,3.95-5.38-4.24-4.45-4.18,4.51Z" transform="translate(-158.99 -109.4)" fill="#7f1416"/><path d="M757.53,192.18l-4,3.85c1.26,2.38,2.54,4.54,3.58,6.81a8.24,8.24,0,0,1,.71,6.11,5.85,5.85,0,0,1-6.07,4.26,5.77,5.77,0,0,1-5-5.48,12.73,12.73,0,0,1,.84-4.73c.88-2.29,2.14-4.43,3.37-6.92l-3.39-3.75c-1.88,1.35-3.62,2.7-5.46,3.9a33.58,33.58,0,0,1-19.79,5.88,31,31,0,0,1-16.85-5.52c-2.69-1.87-4.44-4.47-3.83-7.91.67-3.78,5.41-6.2,9.54-4.86a23.55,23.55,0,0,1,4.44,2.33c.8.47,1.53,1.08,2.26,1.6,8-5.7,17.27-5.73,26.41-.12,1.07.66,2.09,1.41,3.38,2.28.54-.62,1.12-1.28,1.69-1.95l1.61-1.91c-1.14-2.28-2.31-4.49-3.38-6.75a8.53,8.53,0,0,1-.68-6.13,5.71,5.71,0,0,1,6.72-4.1c2.85.67,5.17,4.13,4.31,7.11a60.43,60.43,0,0,1-3.28,7.77,17.13,17.13,0,0,1-1.23,1.93l4,4.21,7.66-5.94c-1.83-3.17-3.67-6.11-5.26-9.17A13.67,13.67,0,0,1,758,166.5c.69-4.41,3.44-7.26,7.52-8.74a11.05,11.05,0,0,1,11.39,2.09c3.85,3.19,5.08,7.28,3.15,12.18-1.42,3.58-3.55,6.88-5.38,10.29-.27.5-.63,1-1.07,1.6l7.89,6.07,4-3.79c-1.32-2.6-2.69-5-3.71-7.47a9.86,9.86,0,0,1-.69-4.58,5.68,5.68,0,0,1,6.23-5.16,6,6,0,0,1,5.08,6.55c-.23,3.25-1.91,6-3.42,8.71-.3.55-.65,1.08-1,1.73l3.53,3.93a28.86,28.86,0,0,1,10.81-5.49c4.23-1.12,8.53-1.62,12.74-.17a51.38,51.38,0,0,1,6.41,3.28c.85-.59,2.07-1.48,3.33-2.32a8.84,8.84,0,0,1,8.4-1.12,6.07,6.07,0,0,1,3.53,8.93c-1.48,2.91-4.09,4.43-6.88,5.74-13,6.09-24.83,3.63-35.94-4.64-.76-.56-1.49-1.16-2.34-1.83L788,196.05c1.21,2.4,2.4,4.6,3.43,6.88a8.41,8.41,0,0,1,.64,6.13,5.74,5.74,0,0,1-6.6,4.08,6.13,6.13,0,0,1-4.39-7.21,55.55,55.55,0,0,1,3.11-7.51,19.83,19.83,0,0,1,1.44-2.28l-4.15-3.95-7,5.34c1.38,2.39,2.81,4.59,3.95,6.93a29.35,29.35,0,0,1,2.14,5.88c1.54,6.37-3.39,11.13-7.82,12.47-7.27,2.2-15.21-3.3-14.79-10.53a21,21,0,0,1,2-7c1.18-2.67,2.84-5.14,4.37-7.83Zm-11.43-1.29-6.22-3.65-.62.77c-3.21,4.16-7.47,5.75-12.63,5.12-4.53-.55-8.31-2.68-11.94-5.32a13.51,13.51,0,0,0-5.35-2.38c-3.51-.63-6.44,2-5.92,5.1.42,2.51,2.12,4.12,4.25,5.37C720.78,203.6,735.09,200.64,746.1,190.89Zm53-3.65L792.79,191c1.33,1,2.29,1.85,3.31,2.56,11.08,7.71,22.64,9.21,34.8,2.61a9.35,9.35,0,0,0,4.22-4.1,4.21,4.21,0,0,0-2.26-6.11,6.83,6.83,0,0,0-6.75.59c-1.55,1-3,2.16-4.52,3.15C814.8,194,805.23,195.7,799.08,187.24Zm-26.85-4.87A39.49,39.49,0,0,0,778.52,171c1.5-5.17-.86-9.74-6-11.54-6.58-2.32-13.84,3.07-12.79,9.6.82,5.15,3.8,9.28,6.77,13.59L768,181c-1.4-3-2.79-5.74-4-8.57a6.32,6.32,0,0,1,.29-5.49,5.49,5.49,0,0,1,6.57-3c2.7.9,4.82,4,4.06,6.67a41.15,41.15,0,0,1-3.39,8.22C770.75,180.38,770.65,181.35,772.23,182.37Zm.75,16.55c-.38.36-.58.53-.76.72-1.72,1.71-1.7,1.7-.52,3.76,1.5,2.59,3,5.2,3.35,8.25a6.28,6.28,0,0,1-5.17,6.83c-2.67.42-5.54-1.95-6.13-5a9.82,9.82,0,0,1,1.19-6.21c1-2,2.13-3.94,3.23-6l-2.48-2.61c-1.34,2.28-2.74,4.32-3.77,6.52a23,23,0,0,0-2.14,6.36c-.8,5.79,5.25,11,11.21,9.77,4.77-1,9.34-5.21,7.65-11.49C777.57,205.88,775.35,202.45,773,198.92Zm28.28-12.14c3.53,5.71,11.83,6,17.89,2.06C816,184.77,807.22,184.17,801.26,186.78Zm-81.43,2c5.86,3.83,14.24,3.78,17.91-2C732,184.22,723.12,184.67,719.83,188.82Zm66.46-4.58.93,0c1.1-2.8,2.37-5.55,3.24-8.43a4,4,0,0,0-1.87-4.5,3.1,3.1,0,0,0-3.57-.15,4.48,4.48,0,0,0-2.24,4.38,3.24,3.24,0,0,0,.22,1.07C784.08,179.19,785.19,181.71,786.29,184.24Zm-34.52,0,.68-.05a32.1,32.1,0,0,0,2.19-4,20.41,20.41,0,0,0,1.52-5.37,3.81,3.81,0,1,0-7.59-.58,3.5,3.5,0,0,0,0,1.7C749.58,178.73,750.69,181.47,751.77,184.22Zm17.1-5.26h1c1.11-2.67,2.36-5.31,3.29-8a4.3,4.3,0,0,0-1.88-4.79,3.24,3.24,0,0,0-3.82,0,4.25,4.25,0,0,0-1.85,4.78C766.52,173.65,767.76,176.29,768.87,179Zm-16.67,18.9c-1.58,2.86-3.3,5.44-3.72,8.58a4.16,4.16,0,0,0,4.3,4.94c2.15-.21,3.86-2.68,3.39-5.19A21.18,21.18,0,0,0,752.2,197.86Zm34.9.09-.61,0c-1,1.93-2.1,3.82-3,5.81a9.32,9.32,0,0,0-.72,3.5,4,4,0,0,0,3.72,4.11,4,4,0,0,0,4-3.85,4.55,4.55,0,0,0-.16-2C789.33,203,788.2,200.47,787.1,198Zm-17.28,5.26-.61,0c-.71,1.23-1.51,2.41-2.09,3.69a24.07,24.07,0,0,0-1.63,4.56,4.47,4.47,0,0,0,3.33,5.15c1.93.34,4-1.36,4.38-3.67a3.76,3.76,0,0,0-.1-1.86C772.05,208.47,770.92,205.85,769.82,203.21Zm3.49-7.09,6.57-5-7.4-5.67-1.72,2.32c2.1,2.37,2.1,2.37,0,5Zm-5.15-3.34c-.64-.94-1.68-1.79-1.67-2.62s1.08-1.65,1.71-2.52l-1.85-2.18-7.23,5.64L765.5,196Zm-15.83-5.39-3.43,3.74,3.33,3.53,3.6-3.43Zm34.45,7.27,3.31-3.57-3.33-3.56L783,191.09Zm-19.91,2.59,2.53,2.69,2.5-2.61-2.41-3.26Zm2.64-10.93,1.63-2.23-1.75-1.84-1.73,1.87Z" transform="translate(-158.99 -109.4)" fill="#7f1416"/><path d="M215,193.12,211,197c1.27,2.39,2.54,4.55,3.58,6.81a8.24,8.24,0,0,1,.71,6.11,5.59,5.59,0,0,1-11-1.22,13.14,13.14,0,0,1,.84-4.73c.89-2.28,2.14-4.43,3.38-6.91l-3.4-3.76c-1.88,1.36-3.62,2.71-5.46,3.91A33.58,33.58,0,0,1,179.79,203a30.94,30.94,0,0,1-16.85-5.52c-2.69-1.86-4.44-4.46-3.83-7.91.67-3.78,5.42-6.19,9.54-4.86a24.78,24.78,0,0,1,4.44,2.33c.81.47,1.53,1.09,2.26,1.61,8-5.71,17.27-5.73,26.41-.12,1.08.65,2.09,1.4,3.38,2.28l1.69-1.95c.55-.64,1.08-1.29,1.61-1.92-1.14-2.27-2.31-4.48-3.38-6.74a8.48,8.48,0,0,1-.67-6.13A5.71,5.71,0,0,1,211.1,170c2.85.68,5.17,4.13,4.31,7.11a60,60,0,0,1-3.28,7.78,15.74,15.74,0,0,1-1.23,1.92l4,4.21c2.74-2.12,5.25-4.06,7.66-5.94-1.83-3.17-3.67-6.1-5.26-9.16a13.7,13.7,0,0,1-1.84-8.48c.7-4.42,3.44-7.26,7.52-8.74a11.07,11.07,0,0,1,11.4,2.08c3.84,3.19,5.07,7.28,3.14,12.19-1.42,3.57-3.55,6.87-5.38,10.28-.27.5-.63,1-1.06,1.61l7.89,6.07,4-3.79c-1.31-2.61-2.69-5-3.7-7.47a9.78,9.78,0,0,1-.7-4.59,5.69,5.69,0,0,1,6.23-5.16,6,6,0,0,1,5.08,6.55c-.23,3.25-1.9,6-3.42,8.72-.3.55-.64,1.07-1,1.73l3.53,3.93a28.86,28.86,0,0,1,10.81-5.49c4.24-1.12,8.53-1.62,12.74-.17a50.06,50.06,0,0,1,6.41,3.28c.85-.6,2.08-1.48,3.33-2.33a8.89,8.89,0,0,1,8.4-1.12,6.08,6.08,0,0,1,3.53,8.93c-1.47,2.91-4.09,4.44-6.88,5.75-13,6.09-24.83,3.62-35.94-4.64-.76-.56-1.48-1.16-2.34-1.84L245.48,197c1.21,2.4,2.4,4.61,3.44,6.88a8.44,8.44,0,0,1,.63,6.14,5.73,5.73,0,0,1-6.6,4.07,6.12,6.12,0,0,1-4.39-7.21,57.44,57.44,0,0,1,3.11-7.51,20,20,0,0,1,1.45-2.27l-4.16-4-7,5.34c1.38,2.38,2.81,4.58,4,6.93a29.1,29.1,0,0,1,2.13,5.88c1.54,6.37-3.38,11.13-7.82,12.47-7.27,2.19-15.21-3.31-14.79-10.54a21.1,21.1,0,0,1,2-7,88,88,0,0,1,4.38-7.82Zm-11.43-1.29-6.22-3.66-.62.78c-3.21,4.15-7.46,5.74-12.63,5.12-4.53-.55-8.31-2.69-11.94-5.32a13.41,13.41,0,0,0-5.34-2.39c-3.52-.62-6.45,2-5.93,5.1.42,2.52,2.13,4.13,4.25,5.37C178.25,204.53,192.56,201.57,203.57,191.83Zm53-3.65-6.3,3.73c1.34,1,2.29,1.85,3.31,2.56,11.08,7.72,22.64,9.21,34.8,2.62a9.37,9.37,0,0,0,4.22-4.11,4.21,4.21,0,0,0-2.25-6.11,6.85,6.85,0,0,0-6.75.59c-1.56,1-3,2.16-4.52,3.15C272.27,195,262.7,196.64,256.56,188.18Zm-26.86-4.87A39.41,39.41,0,0,0,236,171.93c1.5-5.16-.86-9.74-6-11.54-6.58-2.32-13.83,3.07-12.79,9.6.82,5.15,3.8,9.29,6.77,13.59l1.49-1.64c-1.4-3-2.8-5.74-4-8.58a6.26,6.26,0,0,1,.28-5.48,5.48,5.48,0,0,1,6.57-3c2.7.9,4.82,4,4.06,6.67a41.06,41.06,0,0,1-3.39,8.21C228.22,181.31,228.12,182.28,229.7,183.31Zm.75,16.55c-.38.36-.58.53-.76.71-1.72,1.71-1.7,1.71-.51,3.76,1.49,2.6,3,5.21,3.34,8.26a6.28,6.28,0,0,1-5.17,6.83c-2.66.42-5.54-1.95-6.13-5a9.79,9.79,0,0,1,1.2-6.22c1-2,2.12-3.94,3.22-6l-2.48-2.61c-1.34,2.29-2.74,4.32-3.77,6.53a23,23,0,0,0-2.14,6.36c-.8,5.78,5.26,10.94,11.21,9.76,4.78-.94,9.34-5.2,7.65-11.48C235,206.81,232.83,203.38,230.45,199.86Zm28.28-12.15c3.53,5.71,11.83,6,17.89,2.07C273.49,185.7,264.69,185.1,258.73,187.71Zm-81.43,2c5.86,3.83,14.24,3.77,17.91-2C189.49,185.16,180.6,185.61,177.3,189.76Zm66.46-4.59.93,0c1.1-2.8,2.37-5.55,3.25-8.42a4,4,0,0,0-1.88-4.5,3.08,3.08,0,0,0-3.56-.16,4.48,4.48,0,0,0-2.25,4.38,3.19,3.19,0,0,0,.22,1.07C241.55,180.12,242.66,182.65,243.76,185.17Zm-34.52,0,.68-.06a33.42,33.42,0,0,0,2.2-4,20.6,20.6,0,0,0,1.51-5.37,3.81,3.81,0,1,0-7.59-.58,3.5,3.5,0,0,0,0,1.7C207.05,179.66,208.16,182.4,209.24,185.16Zm17.1-5.27h1c1.11-2.68,2.35-5.31,3.28-8a4.28,4.28,0,0,0-1.88-4.78,3.23,3.23,0,0,0-3.82,0,4.24,4.24,0,0,0-1.85,4.78C224,174.59,225.23,177.22,226.34,179.89Zm-16.67,18.9c-1.57,2.87-3.3,5.44-3.71,8.58a4.14,4.14,0,0,0,4.29,4.94c2.15-.2,3.86-2.68,3.4-5.18A21.38,21.38,0,0,0,209.67,198.79Zm34.91.1-.62,0c-1,1.93-2.1,3.82-3,5.81a9.47,9.47,0,0,0-.72,3.49,3.86,3.86,0,1,0,7.72.27,4.7,4.7,0,0,0-.17-2C246.8,203.91,245.67,201.41,244.58,198.89Zm-17.29,5.26-.61,0a41.77,41.77,0,0,0-2.08,3.68,23.67,23.67,0,0,0-1.64,4.56,4.46,4.46,0,0,0,3.34,5.15c1.92.34,4-1.35,4.37-3.67a3.72,3.72,0,0,0-.1-1.85C229.53,209.41,228.39,206.78,227.29,204.15Zm3.5-7.1,6.56-5-7.4-5.68-1.71,2.32c2.09,2.38,2.09,2.38,0,5Zm-5.15-3.34c-.65-.94-1.69-1.78-1.68-2.62s1.08-1.65,1.71-2.51l-1.85-2.19L216.59,192,223,197Zm-15.84-5.38-3.42,3.74,3.32,3.53,3.6-3.44Zm34.45,7.26,3.31-3.56-3.33-3.57L240.49,192Zm-19.91,2.6,2.53,2.69,2.5-2.61L227,195ZM227,187.26l1.64-2.23-1.76-1.84-1.73,1.86Z" transform="translate(-158.99 -109.4)" fill="#7f1416"/></svg>