<svg xmlns="http://www.w3.org/2000/svg" width="879.25" height="259.75" viewBox="0 0 879.25 259.75"><path d="M467.2,147l-9.76,9.29c3.05,5.76,6.13,11,8.65,16.46,2.12,4.63,3.38,9.55,1.72,14.76-2.12,6.67-8.11,11-14.66,10.31a14,14,0,0,1-12-13.25,31.43,31.43,0,0,1,2-11.44c2.15-5.52,5.17-10.7,8.17-16.71l-8.21-9.07c-4.55,3.27-8.75,6.54-13.19,9.44-14.5,9.48-30.37,14.76-47.82,14.19a74.76,74.76,0,0,1-40.71-13.34c-6.52-4.5-10.73-10.78-9.26-19.11,1.62-9.14,13.08-15,23.05-11.74,3.79,1.22,7.22,3.61,10.72,5.63,1.95,1.13,3.7,2.61,5.47,3.88,19.24-13.79,41.72-13.85,63.82-.3,2.6,1.59,5.06,3.4,8.17,5.51,1.3-1.5,2.7-3.1,4.08-4.71s2.61-3.1,3.89-4.63c-2.76-5.49-5.58-10.84-8.16-16.3-2.23-4.7-3.13-9.72-1.64-14.81a13.78,13.78,0,0,1,16.22-9.91c6.89,1.63,12.5,10,10.43,17.17-1.88,6.49-5.16,12.58-7.94,18.79a37.44,37.44,0,0,1-3,4.65c3.14,3.35,6.23,6.64,9.57,10.18l18.51-14.36c-4.43-7.66-8.86-14.75-12.71-22.14-3.3-6.34-5.59-13.19-4.44-20.49,1.68-10.67,8.3-17.55,18.18-21.12s19.37-1.74,27.52,5c9.29,7.71,12.27,17.59,7.59,29.44-3.41,8.65-8.57,16.62-13,24.86-.65,1.22-1.52,2.31-2.57,3.88L525,141.71l9.68-9.17c-3.18-6.28-6.51-12-9-18a23.56,23.56,0,0,1-1.68-11.08A13.75,13.75,0,0,1,539.12,91c7.3.8,12.81,7.81,12.26,15.83-.54,7.86-4.59,14.39-8.26,21-.73,1.33-1.55,2.61-2.5,4.19l8.52,9.5a70,70,0,0,1,26.12-13.28c10.24-2.69,20.62-3.91,30.8-.4,5.16,1.78,9.83,5,15.48,7.92,2-1.43,5-3.57,8-5.62,6.31-4.25,13.07-5.32,20.31-2.7C659.43,130.91,663,140,658.41,149c-3.56,7-9.87,10.71-16.62,13.88-31.33,14.71-60,8.76-86.85-11.21-1.83-1.36-3.59-2.81-5.66-4.43-3,3.18-5.78,6.23-8.42,9.08,2.92,5.8,5.8,11.13,8.3,16.63,2.13,4.7,3.13,9.71,1.54,14.82-2.23,7.14-9.38,11.46-16,9.85-7.16-1.76-12.68-10-10.6-17.43,1.75-6.26,4.86-12.16,7.52-18.15a46.88,46.88,0,0,1,3.49-5.49l-10-9.55-17,12.9c3.33,5.77,6.8,11.09,9.55,16.75a70,70,0,0,1,5.16,14.21c3.72,15.4-8.18,26.9-18.89,30.13-17.57,5.31-36.76-8-35.74-25.45.34-5.77,2.43-11.66,4.8-17,2.86-6.46,6.88-12.41,10.58-18.91C478.42,155.67,473,151.48,467.2,147Zm-27.62-3.12-15-8.83c-.73.92-1.12,1.39-1.49,1.88-7.77,10-18.05,13.88-30.53,12.36-10.95-1.33-20.07-6.49-28.84-12.84a32.62,32.62,0,0,0-12.92-5.78c-8.5-1.5-15.58,5-14.33,12.33,1,6.07,5.14,10,10.27,13C378.39,174.58,413,167.43,439.58,143.88Zm128-8.82-15.22,9c3.23,2.51,5.54,4.47,8,6.2,26.77,18.64,54.7,22.24,84.09,6.31,4.33-2.34,8-5.37,10.18-9.92,3-6.24.9-12-5.43-14.76-5.7-2.51-11.19-1.83-16.32,1.42-3.75,2.38-7.19,5.23-10.92,7.62C605.6,151.46,582.46,155.5,567.62,135.06Zm-64.9-11.76c5.44-6.23,13-19.89,15.2-27.49,3.63-12.49-2.07-23.53-14.4-27.89-15.89-5.6-33.43,7.42-30.91,23.19,2,12.46,9.19,22.45,16.36,32.85l3.59-4c-3.38-7.23-6.75-13.87-9.59-20.73A15.22,15.22,0,0,1,483.65,86c3.34-6.33,9.81-9.26,15.87-7.25,6.53,2.18,11.66,9.6,9.83,16.11a99.08,99.08,0,0,1-8.2,19.86C499.14,118.47,498.91,120.82,502.72,123.3Zm1.82,40c-.92.86-1.4,1.28-1.85,1.73-4.15,4.13-4.11,4.11-1.24,9.08,3.62,6.27,7.16,12.58,8.09,19.94A15.17,15.17,0,0,1,497,210.55c-6.43,1-13.38-4.71-14.81-12-1.07-5.44.65-10.33,2.89-15,2.32-4.88,5.13-9.52,7.8-14.4l-6-6.31c-3.24,5.52-6.63,10.44-9.12,15.77-2.28,4.88-4.46,10.1-5.18,15.37-1.92,14,12.71,26.45,27.1,23.6,11.53-2.29,22.56-12.59,18.49-27.76C515.62,180.09,510.28,171.81,504.54,163.29Zm68.33-29.35c8.53,13.8,28.6,14.41,43.23,5C608.54,129.08,587.27,127.63,572.87,133.94Zm-196.76,4.94c14.16,9.25,34.4,9.12,43.27-4.9C405.57,127.77,384.06,128.85,376.11,138.88ZM536.7,127.81l2.25.09c2.66-6.77,5.72-13.42,7.84-20.36,1.3-4.28-.71-8.25-4.54-10.87a7.48,7.48,0,0,0-8.61-.39,10.85,10.85,0,0,0-5.42,10.59,7.87,7.87,0,0,0,.52,2.6C531.36,115.59,534,121.7,536.7,127.81Zm-83.41,0,1.63-.13c1.8-3.18,4-6.21,5.31-9.57,1.64-4.18,3.22-8.57,3.65-13,.49-5-4.1-9.56-8.69-9.93-4.41-.37-8.73,3.39-9.64,8.53a8.42,8.42,0,0,0-.05,4.11C448,114.49,450.67,121.11,453.29,127.76Zm41.31-12.71,2.36,0c2.68-6.47,5.68-12.83,7.93-19.44,1.48-4.35-.89-9.23-4.54-11.56a7.82,7.82,0,0,0-9.23,0c-3.69,2.46-6,7.15-4.46,11.55C488.92,102.23,491.92,108.59,494.6,115.05Zm-40.27,45.66c-3.81,6.92-8,13.15-9,20.74-.9,6.85,4.14,12.53,10.37,11.93,5.21-.5,9.34-6.47,8.22-12.53C462.57,173.54,458.9,167.21,454.33,160.71Zm84.34.23-1.48.05c-2.42,4.66-5.08,9.23-7.16,14a22.59,22.59,0,0,0-1.75,8.44c-.08,5.34,4.26,9.83,9,9.94,5,.12,9.14-3.77,9.64-9.3a10.94,10.94,0,0,0-.41-4.88C544,173.08,541.31,167,538.67,160.94ZM496.9,173.66l-1.48.12c-1.7,3-3.64,5.8-5,8.89a58.57,58.57,0,0,0-4,11c-1.24,5.52,2.92,11.54,8.07,12.44,4.65.82,9.64-3.28,10.56-8.86a8.94,8.94,0,0,0-.24-4.49C502.3,186.36,499.56,180,496.9,173.66Zm8.44-17.15,15.86-12.17-17.88-13.71-4.14,5.61c5.06,5.74,5.06,5.74.06,12.09Zm-12.44-8.07c-1.56-2.27-4.07-4.32-4-6.33s2.6-4,4.12-6.08l-4.46-5.29-17.47,13.64,15.41,11.9Zm-38.26-13-8.28,9,8,8.53c3.08-3,6.06-5.78,8.7-8.3ZM537.88,153l8-8.61-8.06-8.62c-3.08,2.94-6,5.77-9,8.62Zm-48.11,6.27,6.12,6.5,6-6.31-5.83-7.87C493.89,154.24,492,156.56,489.77,159.25Zm6.38-26.42,4-5.39L495.86,123l-4.18,4.51Z" transform="translate(-64.6 -62.02)" fill="#7f1416"/><path d="M909.57,281.63l-1.73,1.65c.54,1,1.08,1.94,1.53,2.92a3.53,3.53,0,0,1,.31,2.61,2.5,2.5,0,0,1-2.6,1.83,2.47,2.47,0,0,1-2.13-2.35,5.4,5.4,0,0,1,.36-2c.38-1,.91-1.89,1.44-3l-1.45-1.61c-.81.58-1.55,1.16-2.34,1.67a14.35,14.35,0,0,1-8.49,2.52,13.27,13.27,0,0,1-7.22-2.36,3.33,3.33,0,0,1-1.64-3.4A3.16,3.16,0,0,1,889.7,278a10.47,10.47,0,0,1,1.9,1,9.92,9.92,0,0,1,1,.69c3.41-2.45,7.4-2.46,11.32-.05.46.28.9.6,1.45,1l.73-.83.69-.82c-.49-1-1-1.93-1.45-2.9a3.56,3.56,0,0,1-.29-2.62,2.44,2.44,0,0,1,2.88-1.76,2.62,2.62,0,0,1,1.85,3,27.68,27.68,0,0,1-1.41,3.33,7.07,7.07,0,0,1-.53.82l1.7,1.81,3.28-2.55c-.78-1.36-1.57-2.61-2.25-3.93a5.84,5.84,0,0,1-.79-3.63,4.61,4.61,0,0,1,3.22-3.75,4.76,4.76,0,0,1,4.89.89A4.26,4.26,0,0,1,919.2,273a43,43,0,0,1-2.3,4.41c-.12.21-.27.41-.46.69l3.39,2.6,1.71-1.63c-.56-1.11-1.15-2.12-1.59-3.2a4.12,4.12,0,0,1-.29-2,2.44,2.44,0,0,1,2.67-2.22,2.59,2.59,0,0,1,2.17,2.81,9,9,0,0,1-1.46,3.74c-.13.23-.28.46-.45.74l1.51,1.69a12.38,12.38,0,0,1,4.64-2.36,9.24,9.24,0,0,1,5.46-.07,21,21,0,0,1,2.75,1.4c.36-.25.89-.63,1.43-1a3.78,3.78,0,0,1,3.6-.48,2.61,2.61,0,0,1,1.51,3.83,5.71,5.71,0,0,1-3,2.46c-5.56,2.61-10.64,1.55-15.41-2-.32-.24-.63-.5-1-.79l-1.49,1.61c.51,1,1,2,1.47,3a3.59,3.59,0,0,1,.27,2.63,2.45,2.45,0,0,1-2.83,1.75,2.63,2.63,0,0,1-1.88-3.09A24.26,24.26,0,0,1,921,284.3a10.16,10.16,0,0,1,.62-1l-1.78-1.69-3,2.29c.59,1,1.21,2,1.7,3a12.65,12.65,0,0,1,.91,2.52,4.62,4.62,0,0,1-3.35,5.35c-3.11.94-6.52-1.42-6.34-4.52a9,9,0,0,1,.85-3c.51-1.14,1.22-2.2,1.88-3.35Zm-4.9-.56L902,279.51c-.13.16-.2.24-.26.33a5.56,5.56,0,0,1-5.42,2.19,11,11,0,0,1-5.12-2.27,5.59,5.59,0,0,0-2.29-1,2,2,0,0,0-2.54,2.19,3.31,3.31,0,0,0,1.82,2.3C893.81,286.52,900,285.25,904.67,281.07Zm22.71-1.56-2.7,1.6c.58.44,1,.79,1.43,1.1,4.74,3.31,9.7,4,14.91,1.12a4,4,0,0,0,1.81-1.76,1.81,1.81,0,0,0-1-2.62,3,3,0,0,0-2.9.25c-.66.42-1.27.93-1.94,1.35C934.12,282.42,930,283.14,927.38,279.51Zm-11.51-2.09a17.16,17.16,0,0,0,2.7-4.87A3.85,3.85,0,0,0,916,267.6c-2.82-1-5.93,1.31-5.48,4.11.35,2.21,1.63,4,2.9,5.83l.64-.7c-.6-1.29-1.2-2.47-1.7-3.68a2.7,2.7,0,0,1,.12-2.35,2.34,2.34,0,0,1,2.81-1.29,2.56,2.56,0,0,1,1.75,2.86,17.78,17.78,0,0,1-1.46,3.52C915.23,276.57,915.19,277,915.87,277.42Zm.32,7.1-.32.3c-.74.74-.73.73-.22,1.62a9.63,9.63,0,0,1,1.43,3.53,2.7,2.7,0,0,1-2.22,2.93,2.56,2.56,0,0,1-2.63-2.13,4.26,4.26,0,0,1,.52-2.67c.41-.86.91-1.69,1.38-2.55l-1.06-1.12c-.58,1-1.18,1.85-1.62,2.8a9.93,9.93,0,0,0-.92,2.72c-.34,2.48,2.26,4.7,4.81,4.19a3.93,3.93,0,0,0,3.28-4.92A15.82,15.82,0,0,0,916.19,284.52Zm12.13-5.21c1.51,2.45,5.07,2.56,7.67.89C934.64,278.45,930.87,278.19,928.32,279.31Zm-34.91.88c2.51,1.64,6.1,1.62,7.68-.87C898.63,278.22,894.82,278.41,893.41,280.19Zm28.49-2,.4,0c.47-1.2,1-2.38,1.39-3.61a1.71,1.71,0,0,0-.81-1.93,1.31,1.31,0,0,0-1.52-.07,1.93,1.93,0,0,0-1,1.88,1.46,1.46,0,0,0,.1.46C921,276.06,921.43,277.14,921.9,278.22Zm-14.8,0,.29,0a12.84,12.84,0,0,0,.94-1.7,9,9,0,0,0,.65-2.3,1.63,1.63,0,1,0-3.25-.25,1.39,1.39,0,0,0,0,.73C906.16,275.86,906.64,277,907.1,278.22Zm7.33-2.26h.42c.47-1.15,1-2.28,1.41-3.45a1.84,1.84,0,0,0-.81-2.05,1.4,1.4,0,0,0-1.64,0,1.82,1.82,0,0,0-.79,2.05C913.42,273.68,914,274.81,914.43,276Zm-7.14,8.1a10.69,10.69,0,0,0-1.6,3.68,1.78,1.78,0,0,0,1.84,2.12,1.87,1.87,0,0,0,1.46-2.23A9.17,9.17,0,0,0,907.29,284.06Zm15,0H922c-.43.83-.9,1.64-1.27,2.49a4.07,4.07,0,0,0-.32,1.5,1.74,1.74,0,0,0,1.6,1.76,1.71,1.71,0,0,0,1.71-1.65,1.77,1.77,0,0,0-.07-.86C923.2,286.25,922.72,285.18,922.25,284.1Zm-7.41,2.26-.27,0c-.3.52-.64,1-.89,1.58a10.56,10.56,0,0,0-.7,2,1.92,1.92,0,0,0,1.43,2.21,1.78,1.78,0,0,0,1.88-1.57,1.66,1.66,0,0,0,0-.8C915.8,288.61,915.31,287.49,914.84,286.36Zm1.5-3.05,2.81-2.15L916,278.72l-.74,1c.9,1,.9,1,0,2.14Zm-2.21-1.43c-.28-.4-.72-.76-.72-1.12s.46-.71.73-1.08l-.79-.94-3.1,2.42,2.73,2.11Zm-6.79-2.31-1.47,1.61,1.43,1.51,1.54-1.47Zm14.77,3.12,1.42-1.53-1.43-1.53-1.61,1.53Zm-8.54,1.11,1.09,1.15,1.07-1.12-1-1.39Zm1.13-4.69.71-.95-.76-.79-.74.8Z" transform="translate(-64.6 -62.02)" fill="#7f1416"/><path d="M88.61,282l-1.73,1.65c.54,1,1.08,1.94,1.53,2.91a3.51,3.51,0,0,1,.3,2.62,2.39,2.39,0,0,1-4.72-.52,5.6,5.6,0,0,1,.35-2c.39-1,.92-1.9,1.45-3L84.34,282c-.81.58-1.56,1.16-2.34,1.67a14.45,14.45,0,0,1-8.49,2.52,13.18,13.18,0,0,1-7.22-2.37,3.29,3.29,0,0,1-1.64-3.39c.28-1.62,2.32-2.65,4.09-2.08a10.47,10.47,0,0,1,1.9,1,9.92,9.92,0,0,1,1,.69C75,277.6,79,277.59,82.93,280c.46.29.9.61,1.45,1l.72-.83.7-.82c-.49-1-1-1.93-1.45-2.9a3.56,3.56,0,0,1-.29-2.62A2.43,2.43,0,0,1,86.93,272a2.6,2.6,0,0,1,1.85,3,25.64,25.64,0,0,1-1.4,3.34,7.07,7.07,0,0,1-.53.82l1.7,1.81,3.28-2.55c-.79-1.36-1.57-2.62-2.25-3.93a5.78,5.78,0,0,1-.79-3.63A4.59,4.59,0,0,1,92,267.19a4.76,4.76,0,0,1,4.89.89,4.25,4.25,0,0,1,1.34,5.23,44,44,0,0,1-2.3,4.41c-.12.21-.27.41-.46.68L98.86,281l1.72-1.63c-.56-1.11-1.15-2.13-1.59-3.2a4.29,4.29,0,0,1-.3-2,2.45,2.45,0,0,1,2.68-2.21,2.58,2.58,0,0,1,2.17,2.81,9.15,9.15,0,0,1-1.46,3.74c-.13.23-.28.46-.45.74l1.51,1.68a12.51,12.51,0,0,1,4.64-2.35,9.16,9.16,0,0,1,5.46-.07A21,21,0,0,1,116,280c.36-.25.89-.63,1.43-1a3.77,3.77,0,0,1,3.6-.48,2.6,2.6,0,0,1,1.51,3.82,5.68,5.68,0,0,1-3,2.47c-5.56,2.61-10.65,1.55-15.41-2-.32-.24-.63-.5-1-.79l-1.49,1.61c.51,1,1,2,1.47,2.95a3.64,3.64,0,0,1,.27,2.63,2.45,2.45,0,0,1-2.83,1.75,2.63,2.63,0,0,1-1.88-3.09,24.26,24.26,0,0,1,1.33-3.22,8.52,8.52,0,0,1,.62-1L98.88,282l-3,2.29c.59,1,1.21,2,1.7,3a12.65,12.65,0,0,1,.91,2.52c.66,2.73-1.45,4.77-3.35,5.35-3.12.94-6.52-1.42-6.34-4.52a9,9,0,0,1,.85-3c.51-1.14,1.22-2.2,1.88-3.35Zm-4.9-.56L81,279.83c-.13.16-.2.24-.26.33a5.57,5.57,0,0,1-5.42,2.19,10.9,10.9,0,0,1-5.12-2.28,5.77,5.77,0,0,0-2.29-1,2,2,0,0,0-2.54,2.19,3.35,3.35,0,0,0,1.82,2.3C72.85,286.84,79,285.57,83.71,281.39Zm22.71-1.56-2.7,1.6c.58.44,1,.79,1.42,1.1,4.75,3.3,9.71,3.94,14.92,1.12a4.05,4.05,0,0,0,1.81-1.76,1.8,1.8,0,0,0-1-2.62,2.9,2.9,0,0,0-2.89.25c-.66.42-1.28.93-1.94,1.35C113.16,282.74,109.06,283.45,106.42,279.83Zm-11.51-2.09a16.81,16.81,0,0,0,2.69-4.88,3.83,3.83,0,0,0-2.55-4.94c-2.82-1-5.93,1.31-5.48,4.11.35,2.21,1.63,4,2.9,5.83l.64-.71c-.6-1.28-1.2-2.46-1.71-3.67a2.74,2.74,0,0,1,.13-2.35,2.34,2.34,0,0,1,2.81-1.29,2.55,2.55,0,0,1,1.74,2.86,17.64,17.64,0,0,1-1.45,3.52C94.27,276.88,94.23,277.3,94.91,277.74Zm.32,7.1-.33.3c-.73.74-.73.73-.22,1.61a9.6,9.6,0,0,1,1.44,3.54,2.7,2.7,0,0,1-2.22,2.93,2.56,2.56,0,0,1-2.63-2.13,4.18,4.18,0,0,1,.52-2.67c.41-.86.91-1.69,1.38-2.55l-1.06-1.12c-.58,1-1.18,1.85-1.62,2.8a9.61,9.61,0,0,0-.92,2.72c-.34,2.48,2.25,4.69,4.81,4.19a3.94,3.94,0,0,0,3.28-4.93A15.89,15.89,0,0,0,95.23,284.84Zm12.12-5.21c1.52,2.45,5.08,2.56,7.67.88C113.68,278.77,109.91,278.51,107.35,279.63Zm-34.9.88c2.51,1.64,6.1,1.61,7.67-.87C77.67,278.53,73.86,278.73,72.45,280.51Zm28.49-2,.4,0c.47-1.2,1-2.38,1.39-3.61a1.71,1.71,0,0,0-.81-1.93,1.32,1.32,0,0,0-1.53-.07,1.93,1.93,0,0,0-1,1.88,1.46,1.46,0,0,0,.1.46C100,276.37,100.47,277.46,100.94,278.54Zm-14.8,0,.29,0a12.84,12.84,0,0,0,.94-1.7,9,9,0,0,0,.65-2.3,1.63,1.63,0,1,0-3.25-.25,1.39,1.39,0,0,0,0,.73C85.2,276.18,85.67,277.35,86.14,278.53Zm7.33-2.25h.42c.47-1.14,1-2.27,1.4-3.44a1.83,1.83,0,0,0-.8-2.06,1.41,1.41,0,0,0-1.64,0,1.82,1.82,0,0,0-.79,2.05C92.46,274,93,275.13,93.47,276.28Zm-7.15,8.1a10.86,10.86,0,0,0-1.59,3.68,1.77,1.77,0,0,0,1.84,2.11A1.86,1.86,0,0,0,88,288,9.13,9.13,0,0,0,86.32,284.38Zm15,0H101c-.43.83-.9,1.64-1.27,2.49a4,4,0,0,0-.31,1.5,1.74,1.74,0,0,0,1.6,1.76,1.71,1.71,0,0,0,1.71-1.65,2,2,0,0,0-.07-.87C102.24,286.57,101.75,285.5,101.29,284.42Zm-7.41,2.26-.27,0c-.3.52-.64,1-.89,1.57a10.92,10.92,0,0,0-.7,2,1.92,1.92,0,0,0,1.43,2.21,1.78,1.78,0,0,0,1.87-1.57,1.54,1.54,0,0,0,0-.8C94.83,288.93,94.35,287.81,93.88,286.68Zm1.49-3.05,2.82-2.16L95,279l-.74,1c.9,1,.9,1,0,2.14Zm-2.2-1.43c-.28-.4-.72-.76-.72-1.12s.46-.71.73-1.08l-.79-.94-3.1,2.42L92,283.59Zm-6.79-2.31-1.47,1.61L86.34,283l1.54-1.47ZM101.15,283l1.42-1.53L101.14,280l-1.61,1.53Zm-8.54,1.11,1.09,1.15,1.07-1.12-1-1.39Zm1.13-4.69.7-.95-.75-.79-.74.8Z" transform="translate(-64.6 -62.02)" fill="#7f1416"/><path d="M190.88,276.63a29.57,29.57,0,0,0,3.12-3.56,30.44,30.44,0,0,0,2.38-3.68,21.21,21.21,0,0,0,1.51-3.48,10.27,10.27,0,0,0,.52-3.05,6.12,6.12,0,0,0-.11-1.14,2.49,2.49,0,0,0-.43-1,2.11,2.11,0,0,0-.82-.68,3.07,3.07,0,0,0-1.3-.25,6.11,6.11,0,0,0-3.39,1.14,13.46,13.46,0,0,0-3.29,3.32,23.06,23.06,0,0,0-2.24,3.76q-1,2.1-2,4.47c-.63,1.58-1.24,3.23-1.85,4.95s-1.25,3.46-1.93,5.21q-1.44,3.69-2.86,6.77a60.92,60.92,0,0,1-2.9,5.57,38.43,38.43,0,0,1-3,4.41,23.6,23.6,0,0,1-3.2,3.32q1.4.42,3.12.84c1.14.28,2.33.54,3.58.77s2.52.43,3.81.59a31.15,31.15,0,0,0,3.84.23,18.34,18.34,0,0,0,5.89-.85,14.09,14.09,0,0,0,4.6-2.59,23.07,23.07,0,0,0,3.94-4.36q1.86-2.62,3.88-6.2l1.5-2.7.79.56-1.53,2.7a55.41,55.41,0,0,1-5.39,8.07,28.2,28.2,0,0,1-5.11,4.95,15.49,15.49,0,0,1-4.95,2.47,18.4,18.4,0,0,1-4.91.68,24,24,0,0,1-3.56-.29c-1.26-.2-2.55-.46-3.86-.78s-2.67-.69-4-1.1l-4-1.23a17,17,0,0,1-4.51,1.89,20.24,20.24,0,0,1-5,.6,14.41,14.41,0,0,1-3-.25,5.68,5.68,0,0,1-1.83-.66,2.17,2.17,0,0,1-.92-.94,2.38,2.38,0,0,1-.25-1.05,2.24,2.24,0,0,1,.67-1.7,4.83,4.83,0,0,1,1.7-1,10.13,10.13,0,0,1,2.26-.5,21.43,21.43,0,0,1,2.34-.13,25.2,25.2,0,0,1,4.61.4c1.46.26,2.8.56,4,.89a19.61,19.61,0,0,0,1.8-2.46c.6-.94,1.22-2,1.85-3.24s1.29-2.6,2-4.13,1.41-3.24,2.19-5.11c1.24-2.93,2.34-5.64,3.33-8.13s2-4.75,2.89-6.78a56.22,56.22,0,0,1,2.85-5.47,20.4,20.4,0,0,1,3.27-4.17,13.82,13.82,0,0,1,4.22-2.9,10.7,10.7,0,0,1,4.25-.94,6.18,6.18,0,0,1,2.3.38,3.62,3.62,0,0,1,1.46,1,3.78,3.78,0,0,1,.76,1.54,7.62,7.62,0,0,1,.22,1.9,13.25,13.25,0,0,1-2.18,7,30.08,30.08,0,0,1-6.31,7Zm-33.72,29.3a18.38,18.38,0,0,0,4.25-.44,9.42,9.42,0,0,0,3.4-1.62l-2-.6c-.71-.2-1.45-.39-2.21-.55s-1.53-.31-2.3-.41a16.06,16.06,0,0,0-2.27-.16,6.66,6.66,0,0,0-2.71.45,1.54,1.54,0,0,0-1,1.48,1.44,1.44,0,0,0,.19.72,1.56,1.56,0,0,0,.72.58,5.41,5.41,0,0,0,1.48.4A16.43,16.43,0,0,0,157.16,305.93Z" transform="translate(-64.6 -62.02)" fill="#7f1416" stroke="#7f1416" stroke-miterlimit="10"/><path d="M203.16,288.73a32.28,32.28,0,0,1,2.52-5.76,28.33,28.33,0,0,1,3.18-4.61,24,24,0,0,1,3.6-3.49,23.48,23.48,0,0,1,3.78-2.42A19.23,19.23,0,0,1,220,271a14,14,0,0,1,3.44-.47,6.71,6.71,0,0,1,2.79.52,4.64,4.64,0,0,1,1.8,1.43,5.9,5.9,0,0,1,1,2.23,13.5,13.5,0,0,1,.29,2.88l2.38-6.5H236l-7.47,20.51c-.27.76-.55,1.54-.82,2.33s-.51,1.57-.72,2.34-.37,1.52-.5,2.23a12,12,0,0,0-.19,2,4.69,4.69,0,0,0,1.07,3.22,4.25,4.25,0,0,0,3.33,1.2,9.1,9.1,0,0,0,3.81-.84,13.17,13.17,0,0,0,3.64-2.54,28.28,28.28,0,0,0,3.62-4.31,68.71,68.71,0,0,0,3.75-6.08l1.5-2.7.79.56-1.53,2.7a74.32,74.32,0,0,1-4.08,6.57,29.5,29.5,0,0,1-3.88,4.57,13.75,13.75,0,0,1-4,2.67,10.77,10.77,0,0,1-4.31.86,8.52,8.52,0,0,1-3.15-.54,6.1,6.1,0,0,1-2.28-1.54,6.35,6.35,0,0,1-1.39-2.4,9.94,9.94,0,0,1-.47-3.13,17.31,17.31,0,0,1,.2-2.48,24.08,24.08,0,0,1,.62-2.77,38.89,38.89,0,0,1-7.59,9.66,11.69,11.69,0,0,1-7.62,3.2,6.78,6.78,0,0,1-3.09-.65,5.72,5.72,0,0,1-2.09-1.85,8.05,8.05,0,0,1-1.2-2.78,14.78,14.78,0,0,1-.38-3.5,23.86,23.86,0,0,1,.41-4.33A32,32,0,0,1,203.16,288.73Zm6.24,16.2a7,7,0,0,0,3.22-.84,15.16,15.16,0,0,0,3.27-2.28,26.71,26.71,0,0,0,3.15-3.4,44.27,44.27,0,0,0,2.88-4.16,51.52,51.52,0,0,0,2.51-4.55q1.14-2.35,2-4.62a34,34,0,0,0,1.28-4.33,17.11,17.11,0,0,0,.46-3.71,7.3,7.3,0,0,0-.37-2.51,4.59,4.59,0,0,0-1-1.64,3.42,3.42,0,0,0-1.38-.89,4.83,4.83,0,0,0-1.6-.26,8.18,8.18,0,0,0-3.65,1,16.44,16.44,0,0,0-4.08,3.07A30.3,30.3,0,0,0,212,281a43.23,43.23,0,0,0-3.68,7.4,48.5,48.5,0,0,0-2.06,6.56,23.36,23.36,0,0,0-.69,5,6.17,6.17,0,0,0,.92,3.59A3.3,3.3,0,0,0,209.4,304.93Z" transform="translate(-64.6 -62.02)" fill="#7f1416" stroke="#7f1416" stroke-miterlimit="10"/><path d="M243.09,297.9a14.31,14.31,0,0,1,.32-3,15.62,15.62,0,0,1,.88-2.76,11.76,11.76,0,0,1,1.29-2.3,7,7,0,0,1,1.55-1.6l12.37-18a10.91,10.91,0,0,1,1.11-3.81c.53-.95,1.16-1.43,1.9-1.43a2.24,2.24,0,0,1,1.47.47,1.4,1.4,0,0,1,.58,1.14,1.63,1.63,0,0,1-.23.88,4.44,4.44,0,0,1-.82.88,12,12,0,0,0-1.13,1.05,5.84,5.84,0,0,0-.74,1,3.15,3.15,0,0,0-.41,1.05,5.68,5.68,0,0,0-.12,1.2,9.14,9.14,0,0,0,.1,1.35c.07.47.19,1.07.37,1.79s.42,1.62.74,2.69.74,2.43,1.25,4.08a35.91,35.91,0,0,1,1.13,4.68,27.22,27.22,0,0,1,.36,4.34q0,8.06-5.83,12.22a13.94,13.94,0,0,1-3.73,1.89,13.21,13.21,0,0,1-4.06.65,9.64,9.64,0,0,1-3.49-.6,7.16,7.16,0,0,1-2.62-1.7,7.58,7.58,0,0,1-1.65-2.66A10.05,10.05,0,0,1,243.09,297.9Zm16.23-25.52-10.46,15.26a1.94,1.94,0,0,1,1.5.62,2.36,2.36,0,0,1,.55,1.64,3.73,3.73,0,0,1-.14,1,3,3,0,0,1-.41.84,2.39,2.39,0,0,1-.62.57,1.41,1.41,0,0,1-.73.22,1.62,1.62,0,0,1-.85-.21,1.82,1.82,0,0,0-.88-.2,1.86,1.86,0,0,0-1.16.42,3.48,3.48,0,0,0-.93,1.19,7,7,0,0,0-.62,1.8,10.73,10.73,0,0,0-.22,2.27,9.11,9.11,0,0,0,.45,3,6.3,6.3,0,0,0,1.32,2.24,5.8,5.8,0,0,0,2.08,1.42,7.31,7.31,0,0,0,2.77.5,8.34,8.34,0,0,0,3.81-.88,9.09,9.09,0,0,0,3.08-2.55q3.17-4,3.16-12.19c0-.66,0-1.32,0-2s-.08-1.34-.15-2-.16-1.48-.28-2.3-.25-1.75-.41-2.79c-.27-1.74-.48-3.19-.61-4.36a25,25,0,0,1-.21-2.84Z" transform="translate(-64.6 -62.02)" fill="#7f1416" stroke="#7f1416" stroke-miterlimit="10"/><path d="M274.73,271.12h8.56l2.78-7.67h4.33l-2.78,7.67h8.79v1.17h-9.23l-7,19.34c-.27.76-.54,1.54-.8,2.34s-.5,1.59-.71,2.36-.37,1.51-.5,2.23a11.86,11.86,0,0,0-.19,1.95,4.61,4.61,0,0,0,1.1,3.22,4.29,4.29,0,0,0,3.33,1.2,11.24,11.24,0,0,0,4.22-.82,14.94,14.94,0,0,0,4-2.52,26.46,26.46,0,0,0,3.95-4.29,54.7,54.7,0,0,0,4-6.14l1.52-2.7.79.56-1.52,2.7a58.46,58.46,0,0,1-4.48,6.9,28.12,28.12,0,0,1-4.29,4.52,14.37,14.37,0,0,1-4.31,2.49,13.59,13.59,0,0,1-4.53.76,8.61,8.61,0,0,1-3.16-.54,6,6,0,0,1-2.3-1.54,6.66,6.66,0,0,1-1.41-2.4,9.65,9.65,0,0,1-.48-3.13,18,18,0,0,1,.35-3.34,26.38,26.38,0,0,1,1.08-3.81l7-19.34h-8.12Z" transform="translate(-64.6 -62.02)" fill="#7f1416" stroke="#7f1416" stroke-miterlimit="10"/><path d="M334.79,274.05c.18-.43.38-1,.63-1.82s.48-1.63.7-2.56.42-1.89.59-2.9a18.19,18.19,0,0,0,.25-2.83,10.59,10.59,0,0,0-.13-1.64,3.69,3.69,0,0,0-.46-1.3,2.56,2.56,0,0,0-.83-.87,2.43,2.43,0,0,0-1.28-.32,5.35,5.35,0,0,0-2.71.84,11.81,11.81,0,0,0-2.91,2.56,28.72,28.72,0,0,0-3,4.38,54.17,54.17,0,0,0-3,6.26l-.79-.53a50.07,50.07,0,0,1,3.27-6.77,24.65,24.65,0,0,1,3.34-4.53,11.66,11.66,0,0,1,3.37-2.53,7.78,7.78,0,0,1,3.35-.79,5.29,5.29,0,0,1,2.68.61,4.5,4.5,0,0,1,1.69,1.69,7.4,7.4,0,0,1,.86,2.49,17.21,17.21,0,0,1,.25,3,16.52,16.52,0,0,1-.12,1.89,19.58,19.58,0,0,1-.35,2.15q1.69-2.9,3.24-5.12a24.32,24.32,0,0,1,3.06-3.72,12,12,0,0,1,3.09-2.26,7.56,7.56,0,0,1,3.36-.76,8.72,8.72,0,0,1,3.06.53,7,7,0,0,1,4.25,4.07,9.05,9.05,0,0,1,.63,3.49,11.42,11.42,0,0,1-.15,1.87,14.55,14.55,0,0,1-.44,1.85c1.13-1.94,2.21-3.64,3.24-5.12a26.25,26.25,0,0,1,3-3.69,12,12,0,0,1,3.08-2.24,7.51,7.51,0,0,1,3.35-.76,8.4,8.4,0,0,1,3,.53,7.41,7.41,0,0,1,2.49,1.53,7.31,7.31,0,0,1,1.7,2.54,9.05,9.05,0,0,1,.63,3.49,17.16,17.16,0,0,1-.81,4.93c-.54,1.79-1.21,3.66-2,5.63s-1.66,4-2.59,6-1.79,4.09-2.59,6.12a60.62,60.62,0,0,0-2,6,20.6,20.6,0,0,0-.8,5.5,5.51,5.51,0,0,0,.93,3.34,3.54,3.54,0,0,0,3,1.25,8.16,8.16,0,0,0,3.72-.9,14,14,0,0,0,3.55-2.71,33.67,33.67,0,0,0,3.59-4.5q1.83-2.7,3.85-6.27l1.52-2.7.79.56-1.52,2.7c-1.47,2.59-2.85,4.85-4.16,6.76a32,32,0,0,1-3.88,4.77,14.51,14.51,0,0,1-3.91,2.81,10.16,10.16,0,0,1-4.28.92,10.78,10.78,0,0,1-3.49-.5,5.89,5.89,0,0,1-2.34-1.42,5.35,5.35,0,0,1-1.32-2.23,9.74,9.74,0,0,1-.41-2.91,21.29,21.29,0,0,1,.47-4.28,47,47,0,0,1,1.24-4.66q.78-2.4,1.76-4.87t2-4.91q1-2.43,2-4.75c.66-1.54,1.24-3,1.76-4.39s.93-2.67,1.25-3.85a12.66,12.66,0,0,0,.47-3.15,5.14,5.14,0,0,0-1.19-3.71,4.16,4.16,0,0,0-3.12-1.22,6.1,6.1,0,0,0-3.18.94,14,14,0,0,0-3.12,2.77,41.49,41.49,0,0,0-3.3,4.51Q361,271,359,274.52l-.56,1-11,30.32h-4.34L352,281.46q.9-2.49,1.77-4.86c.58-1.58,1.09-3.08,1.54-4.48s.81-2.71,1.1-3.9a14,14,0,0,0,.42-3.16,5.49,5.49,0,0,0-1.27-3.87,4.29,4.29,0,0,0-3.3-1.38,5.84,5.84,0,0,0-3.18,1,14.71,14.71,0,0,0-3.12,2.87,40.1,40.1,0,0,0-3.26,4.58c-1.13,1.81-2.34,3.86-3.65,6.14l-11.46,31.44h-4.33Z" transform="translate(-64.6 -62.02)" fill="#7f1416" stroke="#7f1416" stroke-miterlimit="10"/><path d="M396.46,271.12h4.34l-7.48,20.51L392.5,294c-.27.79-.51,1.57-.71,2.34s-.37,1.52-.5,2.23a11,11,0,0,0-.19,2,4.64,4.64,0,0,0,1.07,3.22,4.22,4.22,0,0,0,3.32,1.2,8.88,8.88,0,0,0,3.8-.85,13.83,13.83,0,0,0,3.63-2.56,28.87,28.87,0,0,0,3.62-4.31q1.81-2.59,3.78-6l1.52-2.7.79.56-1.52,2.7Q409,295.5,407,298.26a28.49,28.49,0,0,1-3.9,4.57,14.09,14.09,0,0,1-4,2.69,10.73,10.73,0,0,1-4.3.87,8.52,8.52,0,0,1-3.15-.54,6.13,6.13,0,0,1-2.29-1.54,6.48,6.48,0,0,1-1.39-2.4,9.94,9.94,0,0,1-.47-3.13,17.3,17.3,0,0,1,.37-3.34,27.63,27.63,0,0,1,1.07-3.81Zm2.34-7.67a2.42,2.42,0,0,1,.72-1.76,2.35,2.35,0,0,1,1.74-.74,2.45,2.45,0,0,1,2.27,3.42,2.18,2.18,0,0,1-.52.77,2.64,2.64,0,0,1-.79.52,2.5,2.5,0,0,1-1,.19,2.36,2.36,0,0,1-1.72-.69A2.3,2.3,0,0,1,398.8,263.45Z" transform="translate(-64.6 -62.02)" fill="#7f1416" stroke="#7f1416" stroke-miterlimit="10"/><path d="M418.14,271.12h4.34l-4.6,12.6a66.66,66.66,0,0,1,3.77-5.82,28,28,0,0,1,3.62-4.1,13.81,13.81,0,0,1,3.65-2.43,9.6,9.6,0,0,1,3.9-.81,8.18,8.18,0,0,1,3.22.6,6.62,6.62,0,0,1,2.31,1.65,6.7,6.7,0,0,1,1.41,2.41,9,9,0,0,1,.47,2.9,15.39,15.39,0,0,1-.48,3.64c-.33,1.3-.73,2.65-1.22,4s-1,2.79-1.58,4.2-1.1,2.78-1.58,4.09-.9,2.53-1.22,3.68a11.3,11.3,0,0,0-.48,3,4.17,4.17,0,0,0,1.1,3,4.47,4.47,0,0,0,3.44,1.19,8.47,8.47,0,0,0,3.67-.86,14.27,14.27,0,0,0,3.61-2.58,29.5,29.5,0,0,0,3.63-4.31,70.53,70.53,0,0,0,3.77-6l1.52-2.7.79.56-1.52,2.7q-2.12,3.69-4.05,6.46a29.42,29.42,0,0,1-3.86,4.58,14.91,14.91,0,0,1-3.94,2.73,10.32,10.32,0,0,1-4.27.9,8.64,8.64,0,0,1-3.23-.55,6.48,6.48,0,0,1-2.33-1.53,6.17,6.17,0,0,1-1.41-2.24,7.84,7.84,0,0,1-.47-2.71,14,14,0,0,1,.48-3.41c.33-1.26.73-2.58,1.22-3.95s1-2.78,1.58-4.19,1.1-2.8,1.58-4.14.9-2.6,1.22-3.8a12.68,12.68,0,0,0,.48-3.21,6.13,6.13,0,0,0-.26-1.85,3.84,3.84,0,0,0-.83-1.46,4.11,4.11,0,0,0-1.44-1,5.57,5.57,0,0,0-2.07-.35,7.92,7.92,0,0,0-3.6.89A14.15,14.15,0,0,0,425,275.6a31.74,31.74,0,0,0-3.6,4.47c-1.22,1.79-2.51,3.87-3.86,6.26L416,289l-6.15,16.82h-4.34Z" transform="translate(-64.6 -62.02)" fill="#7f1416" stroke="#7f1416" stroke-miterlimit="10"/><path d="M460.71,271.12H465l-7.47,20.51-.82,2.33q-.4,1.19-.72,2.34c-.2.77-.37,1.52-.49,2.23a11,11,0,0,0-.19,2,4.64,4.64,0,0,0,1.08,3.22,4.24,4.24,0,0,0,3.31,1.2,9,9,0,0,0,3.81-.85,13.75,13.75,0,0,0,3.65-2.56,29.25,29.25,0,0,0,3.61-4.3,61.35,61.35,0,0,0,3.75-6.06l1.44-2.58,6.39-17.46h4.33l-7.47,20.51-.82,2.33q-.4,1.19-.72,2.34c-.2.77-.37,1.52-.49,2.23a11,11,0,0,0-.19,2,4.64,4.64,0,0,0,1.07,3.22,4.22,4.22,0,0,0,3.32,1.2,8.84,8.84,0,0,0,3.79-.85,13.87,13.87,0,0,0,3.64-2.56,29.48,29.48,0,0,0,3.62-4.31q1.81-2.59,3.77-6l1.53-2.7.76.56-1.49,2.7a72.22,72.22,0,0,1-4.06,6.57,28.49,28.49,0,0,1-3.9,4.57,14,14,0,0,1-4,2.67,10.89,10.89,0,0,1-4.32.86,8.45,8.45,0,0,1-3.15-.54,6.13,6.13,0,0,1-2.29-1.54,6.48,6.48,0,0,1-1.39-2.4,9.94,9.94,0,0,1-.47-3.13,16.06,16.06,0,0,1,.21-2.48,20.89,20.89,0,0,1,.61-2.74,63.42,63.42,0,0,1-3.78,5.73,26.3,26.3,0,0,1-3.63,4,13.18,13.18,0,0,1-3.74,2.34,10.84,10.84,0,0,1-4,.76,8.45,8.45,0,0,1-3.15-.54,6.13,6.13,0,0,1-2.29-1.54,6.48,6.48,0,0,1-1.39-2.4,9.94,9.94,0,0,1-.47-3.13,16.55,16.55,0,0,1,.37-3.34,27.63,27.63,0,0,1,1.07-3.81Z" transform="translate(-64.6 -62.02)" fill="#7f1416" stroke="#7f1416" stroke-miterlimit="10"/><path d="M495.45,271.12H504l2.78-7.67h4.34l-2.79,7.67h8.79v1.17h-9.22l-7,19.34c-.27.76-.54,1.54-.8,2.34s-.5,1.59-.71,2.36-.37,1.51-.49,2.23a10.86,10.86,0,0,0-.19,1.95,4.6,4.6,0,0,0,1.09,3.22,4.32,4.32,0,0,0,3.33,1.2,11.2,11.2,0,0,0,4.22-.82,14.79,14.79,0,0,0,4-2.52,26.94,26.94,0,0,0,4-4.29,54.72,54.72,0,0,0,3.95-6.14l1.53-2.7.79.56-1.53,2.7a57.22,57.22,0,0,1-4.48,6.9,27.27,27.27,0,0,1-4.29,4.52,14.25,14.25,0,0,1-4.31,2.49,13.53,13.53,0,0,1-4.52.76,8.63,8.63,0,0,1-3.17-.54,6.09,6.09,0,0,1-2.3-1.54,6.64,6.64,0,0,1-1.4-2.4,9.39,9.39,0,0,1-.49-3.13,18,18,0,0,1,.35-3.34,25.25,25.25,0,0,1,1.09-3.81l7-19.34h-8.12Z" transform="translate(-64.6 -62.02)" fill="#7f1416" stroke="#7f1416" stroke-miterlimit="10"/><path d="M530.82,306.39c-3.54,0-6.26-.92-8.18-2.76s-2.87-4.6-2.87-8.25a23.82,23.82,0,0,1,.22-3.17,28,28,0,0,1,.69-3.42,30.16,30.16,0,0,1,3-7.27,26.26,26.26,0,0,1,4.41-5.77,20.27,20.27,0,0,1,5.36-3.81,13.24,13.24,0,0,1,5.77-1.38,7.07,7.07,0,0,1,4.62,1.38,4.73,4.73,0,0,1,1.68,3.87,7.14,7.14,0,0,1-.55,2.75,9.18,9.18,0,0,1-1.61,2.55,14.32,14.32,0,0,1-2.54,2.24,16.43,16.43,0,0,1-3.32,1.8,23,23,0,0,1-5,1.45,35.79,35.79,0,0,1-6.27.49,33.12,33.12,0,0,0-1.34,4.93,28.43,28.43,0,0,0-.48,5.23q0,4.08,1.71,5.88t5.41,1.8a14.83,14.83,0,0,0,5.86-1.19,21.66,21.66,0,0,0,5.16-3.12,28.26,28.26,0,0,0,4.33-4.41,39.82,39.82,0,0,0,3.43-5l1.52-2.7.79.56-1.52,2.7a44.89,44.89,0,0,1-4,5.89,27.77,27.77,0,0,1-4.69,4.64A21.4,21.4,0,0,1,537,305.3,17.13,17.13,0,0,1,530.82,306.39ZM540,271.74a7.63,7.63,0,0,0-3.76,1.08,15.68,15.68,0,0,0-3.71,3,26.85,26.85,0,0,0-3.34,4.53,35,35,0,0,0-2.69,5.68,28.13,28.13,0,0,0,5.51-.57,19.36,19.36,0,0,0,4-1.3,13.16,13.16,0,0,0,2.62-1.6,12.61,12.61,0,0,0,2.26-2.24,11.77,11.77,0,0,0,1.58-2.72,8,8,0,0,0,.6-3.05,3.36,3.36,0,0,0-.23-1.32,2.26,2.26,0,0,0-.65-.86,2.43,2.43,0,0,0-1-.49A5.21,5.21,0,0,0,540,271.74Z" transform="translate(-64.6 -62.02)" fill="#7f1416" stroke="#7f1416" stroke-miterlimit="10"/><path d="M610.39,262.42h4.33l-10.63,29.21c-.53,1.46-1,2.94-1.37,4.44a16.63,16.63,0,0,0-.57,4.08,8.32,8.32,0,0,0,.28,2.2,4.68,4.68,0,0,0,.85,1.7,3.85,3.85,0,0,0,1.44,1.1,4.87,4.87,0,0,0,2,.39,8.61,8.61,0,0,0,4.12-1.15,19.9,19.9,0,0,0,4.22-3.17,38.11,38.11,0,0,0,4.13-4.73,57,57,0,0,0,3.84-5.86q1.8-3.13,3.34-6.55a69.88,69.88,0,0,0,2.65-6.79,53.44,53.44,0,0,0,1.73-6.61,32,32,0,0,0,.61-6,17.69,17.69,0,0,0-.26-3.26,15.67,15.67,0,0,0-.6-2.24q-.35-.92-.6-1.47a2.2,2.2,0,0,1-.27-.91A1.38,1.38,0,0,1,630,256a1.32,1.32,0,0,1,1.07-.44,1.46,1.46,0,0,1,1.14.55,4.1,4.1,0,0,1,.75,1.43,10.41,10.41,0,0,1,.39,2,22.64,22.64,0,0,1,.12,2.37,37.44,37.44,0,0,1-.63,6.55,62.66,62.66,0,0,1-1.77,7.26,77.16,77.16,0,0,1-6.27,14.73,59.31,59.31,0,0,1-4.18,6.47A37.09,37.09,0,0,1,616,302.2a21.94,21.94,0,0,1-5,3.51A11.17,11.17,0,0,1,606,307a7.18,7.18,0,0,1-3.31-.72,6.74,6.74,0,0,1-2.33-1.93,8.25,8.25,0,0,1-1.36-2.81,12.91,12.91,0,0,1-.44-3.39,15.63,15.63,0,0,1,.35-3.22,46.17,46.17,0,0,1-3.31,4.88A28.53,28.53,0,0,1,592,303.6a16.42,16.42,0,0,1-3.69,2.49,8.73,8.73,0,0,1-3.75.89,7.68,7.68,0,0,1-2.82-.54,7.49,7.49,0,0,1-4.16-4,8,8,0,0,1-.64-3.29,15.55,15.55,0,0,1,.5-3.68c.33-1.37.76-2.84,1.3-4.41s1.15-3.19,1.85-4.88,1.4-3.39,2.13-5.12,1.45-3.43,2.14-5.11,1.31-3.3,1.85-4.84,1-3,1.3-4.32a15.09,15.09,0,0,0,.5-3.56,6.32,6.32,0,0,0-.13-1.33,3.23,3.23,0,0,0-.43-1.09,2,2,0,0,0-.8-.71,2.65,2.65,0,0,0-1.25-.27,5.31,5.31,0,0,0-2.68.84,11.81,11.81,0,0,0-2.91,2.56,28.72,28.72,0,0,0-3,4.38,54.17,54.17,0,0,0-3,6.26l-.79-.53a51.57,51.57,0,0,1,3.33-6.87,22.86,22.86,0,0,1,3.35-4.51,11.31,11.31,0,0,1,3.43-2.48,8.57,8.57,0,0,1,3.51-.76,5.75,5.75,0,0,1,4.15,1.43,5.34,5.34,0,0,1,1.48,4,15.82,15.82,0,0,1-.5,3.59c-.33,1.37-.77,2.87-1.33,4.48s-1.19,3.3-1.89,5.07-1.42,3.55-2.15,5.36-1.45,3.59-2.16,5.35-1.33,3.42-1.89,5-1,3-1.33,4.35a14.51,14.51,0,0,0-.5,3.4,5.66,5.66,0,0,0,.31,1.93,4.57,4.57,0,0,0,.86,1.53,3.7,3.7,0,0,0,1.35,1,4.19,4.19,0,0,0,1.76.35,7.37,7.37,0,0,0,4.1-1.43,20.94,20.94,0,0,0,4.22-3.9,43.9,43.9,0,0,0,4-5.71,66.65,66.65,0,0,0,3.61-6.88Z" transform="translate(-64.6 -62.02)" fill="#7f1416" stroke="#7f1416" stroke-miterlimit="10"/><path d="M647.3,306.39q-5.31,0-8.17-2.76t-2.88-8.25a25.62,25.62,0,0,1,.22-3.17,28,28,0,0,1,.69-3.42,30.59,30.59,0,0,1,3-7.27,26.26,26.26,0,0,1,4.41-5.77,20.11,20.11,0,0,1,5.36-3.81,13.21,13.21,0,0,1,5.77-1.38,7.06,7.06,0,0,1,4.61,1.38,4.71,4.71,0,0,1,1.69,3.87,7.15,7.15,0,0,1-.56,2.75,9.18,9.18,0,0,1-1.61,2.55,14.24,14.24,0,0,1-2.53,2.24,16.51,16.51,0,0,1-3.33,1.8,22.66,22.66,0,0,1-5,1.45,35.63,35.63,0,0,1-6.27.49,33.1,33.1,0,0,0-1.33,4.93,28.43,28.43,0,0,0-.48,5.23q0,4.08,1.71,5.88t5.4,1.8a14.76,14.76,0,0,0,5.86-1.19,21.27,21.27,0,0,0,5.16-3.12,28.32,28.32,0,0,0,4.34-4.41,39.73,39.73,0,0,0,3.42-5l1.53-2.7.79.56-1.53,2.7a44.89,44.89,0,0,1-4,5.89,27.35,27.35,0,0,1-4.68,4.64,21.57,21.57,0,0,1-5.42,3.05A17.18,17.18,0,0,1,647.3,306.39Zm9.2-34.65a7.67,7.67,0,0,0-3.77,1.08,15.64,15.64,0,0,0-3.7,3,26.32,26.32,0,0,0-3.34,4.53A34.22,34.22,0,0,0,643,286a28,28,0,0,0,5.51-.57,19.67,19.67,0,0,0,4-1.3,13.45,13.45,0,0,0,2.62-1.6,12.24,12.24,0,0,0,2.25-2.24A11.81,11.81,0,0,0,659,277.6a8,8,0,0,0,.6-3.05,3.18,3.18,0,0,0-.24-1.32,2.23,2.23,0,0,0-.64-.86,2.54,2.54,0,0,0-1-.49A5.06,5.06,0,0,0,656.5,271.74Z" transform="translate(-64.6 -62.02)" fill="#7f1416" stroke="#7f1416" stroke-miterlimit="10"/><path d="M668.13,288.73a32.28,32.28,0,0,1,2.52-5.76,29.64,29.64,0,0,1,3.18-4.61,24,24,0,0,1,3.6-3.49,23.48,23.48,0,0,1,3.78-2.42,19.23,19.23,0,0,1,3.72-1.42,14,14,0,0,1,3.44-.47,6.68,6.68,0,0,1,2.79.52,4.64,4.64,0,0,1,1.8,1.43,5.74,5.74,0,0,1,1,2.23,12.89,12.89,0,0,1,.29,2.88l8-21.94h4.34l-13.07,35.95c-.27.76-.55,1.54-.82,2.34s-.51,1.58-.72,2.35-.37,1.5-.49,2.21a11,11,0,0,0-.19,2,4.68,4.68,0,0,0,1.06,3.22,4.26,4.26,0,0,0,3.33,1.2,9.1,9.1,0,0,0,3.81-.84,13.35,13.35,0,0,0,3.65-2.54,28.85,28.85,0,0,0,3.61-4.31,68.71,68.71,0,0,0,3.75-6.08l1.5-2.7.79.56-1.52,2.7q-2.15,3.78-4.09,6.54a29,29,0,0,1-3.88,4.57,14,14,0,0,1-4,2.69,10.77,10.77,0,0,1-4.3.87,8.45,8.45,0,0,1-3.15-.54,6.13,6.13,0,0,1-2.29-1.54,6.48,6.48,0,0,1-1.39-2.4,9.94,9.94,0,0,1-.47-3.13,16.06,16.06,0,0,1,.21-2.48,22,22,0,0,1,.61-2.77,38.89,38.89,0,0,1-7.59,9.66,11.68,11.68,0,0,1-7.61,3.2,6.8,6.8,0,0,1-3.1-.65,5.8,5.8,0,0,1-2.09-1.85,8.05,8.05,0,0,1-1.2-2.78,14.78,14.78,0,0,1-.38-3.5,23.86,23.86,0,0,1,.41-4.33A32,32,0,0,1,668.13,288.73Zm6.24,16.2a7,7,0,0,0,3.22-.84,14.92,14.92,0,0,0,3.27-2.28,26.71,26.71,0,0,0,3.15-3.4,44.27,44.27,0,0,0,2.88-4.16,51.52,51.52,0,0,0,2.51-4.55q1.14-2.35,2-4.62a35.8,35.8,0,0,0,1.29-4.33,17.68,17.68,0,0,0,.45-3.71,7.3,7.3,0,0,0-.37-2.51,4.59,4.59,0,0,0-1-1.64,3.42,3.42,0,0,0-1.38-.89,4.83,4.83,0,0,0-1.6-.26,8.11,8.11,0,0,0-3.64,1,16.48,16.48,0,0,0-4.09,3.07A30.3,30.3,0,0,0,677,281a42.51,42.51,0,0,0-3.67,7.4,47.25,47.25,0,0,0-2.07,6.56,23.36,23.36,0,0,0-.69,5,6.17,6.17,0,0,0,.92,3.59A3.3,3.3,0,0,0,674.37,304.93Z" transform="translate(-64.6 -62.02)" fill="#7f1416" stroke="#7f1416" stroke-miterlimit="10"/><path d="M711.84,288.73a32.28,32.28,0,0,1,2.52-5.76,29.64,29.64,0,0,1,3.18-4.61,24,24,0,0,1,3.6-3.49,23.48,23.48,0,0,1,3.78-2.42,19.23,19.23,0,0,1,3.72-1.42,14,14,0,0,1,3.44-.47,6.68,6.68,0,0,1,2.79.52,4.64,4.64,0,0,1,1.8,1.43,5.74,5.74,0,0,1,1,2.23,12.89,12.89,0,0,1,.29,2.88l8-21.94h4.34l-13.07,35.95c-.27.76-.54,1.54-.82,2.34s-.51,1.58-.72,2.35-.37,1.5-.49,2.21a11,11,0,0,0-.19,2,4.64,4.64,0,0,0,1.07,3.22,4.22,4.22,0,0,0,3.32,1.2,9.1,9.1,0,0,0,3.81-.84,13.2,13.2,0,0,0,3.65-2.54,28.85,28.85,0,0,0,3.61-4.31,64.29,64.29,0,0,0,3.75-6.08l1.5-2.7.79.56-1.52,2.7q-2.15,3.78-4.09,6.54a29,29,0,0,1-3.88,4.57,14,14,0,0,1-4,2.69,10.73,10.73,0,0,1-4.3.87,8.45,8.45,0,0,1-3.15-.54,6.13,6.13,0,0,1-2.29-1.54,6.48,6.48,0,0,1-1.39-2.4,9.94,9.94,0,0,1-.47-3.13,16.06,16.06,0,0,1,.21-2.48,22,22,0,0,1,.61-2.77,38.89,38.89,0,0,1-7.59,9.66,11.68,11.68,0,0,1-7.61,3.2,6.78,6.78,0,0,1-3.09-.65,5.75,5.75,0,0,1-2.1-1.85,8.05,8.05,0,0,1-1.2-2.78,15.32,15.32,0,0,1-.38-3.5,24.79,24.79,0,0,1,.41-4.33A32,32,0,0,1,711.84,288.73Zm6.24,16.2a7,7,0,0,0,3.22-.84,14.92,14.92,0,0,0,3.27-2.28,26.71,26.71,0,0,0,3.15-3.4,44.33,44.33,0,0,0,2.89-4.16c.9-1.47,1.74-3,2.5-4.55s1.42-3.11,2-4.62a35.8,35.8,0,0,0,1.29-4.33,17.68,17.68,0,0,0,.45-3.71,7.3,7.3,0,0,0-.37-2.51,4.59,4.59,0,0,0-1-1.64,3.42,3.42,0,0,0-1.38-.89,4.83,4.83,0,0,0-1.6-.26,8.11,8.11,0,0,0-3.64,1,16.48,16.48,0,0,0-4.09,3.07A30.3,30.3,0,0,0,720.7,281a43.23,43.23,0,0,0-3.67,7.4A47.25,47.25,0,0,0,715,295a23.36,23.36,0,0,0-.69,5,6.1,6.1,0,0,0,.93,3.59A3.27,3.27,0,0,0,718.08,304.93Z" transform="translate(-64.6 -62.02)" fill="#7f1416" stroke="#7f1416" stroke-miterlimit="10"/><path d="M762,271.12h4.33l-7.47,20.51L758,294q-.4,1.19-.72,2.34c-.2.77-.37,1.52-.49,2.23a11,11,0,0,0-.19,2,4.64,4.64,0,0,0,1.07,3.22,4.22,4.22,0,0,0,3.32,1.2,8.84,8.84,0,0,0,3.79-.85,13.87,13.87,0,0,0,3.64-2.56,29.48,29.48,0,0,0,3.62-4.31q1.81-2.59,3.77-6l1.53-2.7.79.56-1.52,2.7q-2.14,3.78-4.09,6.54a28.49,28.49,0,0,1-3.9,4.57,14.23,14.23,0,0,1-4,2.69,10.77,10.77,0,0,1-4.3.87,8.45,8.45,0,0,1-3.15-.54,6.13,6.13,0,0,1-2.29-1.54,6.48,6.48,0,0,1-1.39-2.4,9.94,9.94,0,0,1-.47-3.13,16.55,16.55,0,0,1,.37-3.34,27.63,27.63,0,0,1,1.07-3.81Zm2.34-7.67a2.42,2.42,0,0,1,.72-1.76,2.44,2.44,0,0,1,3.48,0,2.48,2.48,0,0,1,.53,2.7,2.08,2.08,0,0,1-.53.77,2.41,2.41,0,0,1-.79.52,2.45,2.45,0,0,1-1,.19,2.38,2.38,0,0,1-1.73-.69A2.33,2.33,0,0,1,764.34,263.45Z" transform="translate(-64.6 -62.02)" fill="#7f1416" stroke="#7f1416" stroke-miterlimit="10"/><path d="M783.68,271.12H788l-4.6,12.6a69,69,0,0,1,3.78-5.82,27.43,27.43,0,0,1,3.62-4.1,13.81,13.81,0,0,1,3.65-2.43,9.58,9.58,0,0,1,3.89-.81,8.24,8.24,0,0,1,3.23.6,6.62,6.62,0,0,1,2.31,1.65,6.7,6.7,0,0,1,1.41,2.41,9,9,0,0,1,.47,2.9,14.93,14.93,0,0,1-.49,3.64c-.32,1.3-.72,2.65-1.21,4s-1,2.79-1.58,4.2-1.1,2.78-1.59,4.09-.89,2.53-1.21,3.68a11.36,11.36,0,0,0-.49,3,4.21,4.21,0,0,0,1.1,3,4.51,4.51,0,0,0,3.45,1.19,8.47,8.47,0,0,0,3.67-.86,14.63,14.63,0,0,0,3.61-2.58,29.5,29.5,0,0,0,3.63-4.31,70.61,70.61,0,0,0,3.76-6l1.53-2.7.79.56-1.53,2.7q-2.1,3.69-4,6.46a29.44,29.44,0,0,1-3.87,4.58,14.75,14.75,0,0,1-3.94,2.73,10.27,10.27,0,0,1-4.26.9,8.73,8.73,0,0,1-3.24-.55,6.66,6.66,0,0,1-2.33-1.53,6.29,6.29,0,0,1-1.4-2.24,7.84,7.84,0,0,1-.47-2.71,14,14,0,0,1,.48-3.41c.32-1.26.73-2.58,1.22-3.95s1-2.78,1.58-4.19,1.09-2.8,1.58-4.14.9-2.6,1.22-3.8a12.68,12.68,0,0,0,.48-3.21,6.46,6.46,0,0,0-.26-1.85,3.86,3.86,0,0,0-.84-1.46,4.07,4.07,0,0,0-1.43-1,5.6,5.6,0,0,0-2.07-.35,7.92,7.92,0,0,0-3.6.89,14.15,14.15,0,0,0-3.53,2.68,32.48,32.48,0,0,0-3.61,4.47c-1.22,1.79-2.5,3.87-3.85,6.26L781.51,289l-6.15,16.82H771Z" transform="translate(-64.6 -62.02)" fill="#7f1416" stroke="#7f1416" stroke-miterlimit="10"/><path d="M822.38,321.28a12.87,12.87,0,0,1-4.73-.76,6.51,6.51,0,0,1-3-2.41,6.32,6.32,0,0,1-.89-1.68,5.33,5.33,0,0,1-.31-1.77,3,3,0,0,1,.69-2.08,2.42,2.42,0,0,1,1.89-.77,2.25,2.25,0,0,1,1.61.56,2,2,0,0,1,.59,1.55,2.29,2.29,0,0,1-.5,1.53,1.57,1.57,0,0,1-1.26.58A1.4,1.4,0,0,1,816,316a1,1,0,0,0-.43-.09.23.23,0,0,0-.2.07.53.53,0,0,0-.06.31,2.38,2.38,0,0,0,.53,1.51,4.54,4.54,0,0,0,1.46,1.2,8.57,8.57,0,0,0,2.23.79,13.5,13.5,0,0,0,2.78.28,12,12,0,0,0,3.93-.62,9.58,9.58,0,0,0,3.26-1.92,14,14,0,0,0,2.7-3.31,27.22,27.22,0,0,0,2.24-4.82L840,293.94a37.09,37.09,0,0,1-7.45,9.35,11.61,11.61,0,0,1-7.5,3.1,6.78,6.78,0,0,1-3.09-.65,5.72,5.72,0,0,1-2.09-1.85,8.05,8.05,0,0,1-1.2-2.78,14.78,14.78,0,0,1-.38-3.5,23.86,23.86,0,0,1,.41-4.33A34.21,34.21,0,0,1,822.35,283a29,29,0,0,1,3.18-4.61,24,24,0,0,1,3.6-3.49,23.48,23.48,0,0,1,3.78-2.42,19.23,19.23,0,0,1,3.72-1.42,14,14,0,0,1,3.44-.47,7.13,7.13,0,0,1,2.8.49,4.25,4.25,0,0,1,1.8,1.39,5.83,5.83,0,0,1,1,2.2,13.27,13.27,0,0,1,.29,2.87l2.35-6.39h4.33l-13.83,38a19,19,0,0,1-6.35,9.05A16.44,16.44,0,0,1,822.38,321.28Zm3.69-16.35a7,7,0,0,0,3.22-.84,15.16,15.16,0,0,0,3.27-2.28,26.71,26.71,0,0,0,3.15-3.4,44.27,44.27,0,0,0,2.88-4.16,51.52,51.52,0,0,0,2.51-4.55q1.14-2.35,2-4.62a35.8,35.8,0,0,0,1.29-4.33,17.68,17.68,0,0,0,.45-3.71,7.3,7.3,0,0,0-.37-2.51,4.59,4.59,0,0,0-1-1.64,3.42,3.42,0,0,0-1.38-.89,4.83,4.83,0,0,0-1.6-.26,8.11,8.11,0,0,0-3.64,1,16.48,16.48,0,0,0-4.09,3.07,30.3,30.3,0,0,0-4.09,5.22,43.23,43.23,0,0,0-3.68,7.4A48.5,48.5,0,0,0,823,295a23.36,23.36,0,0,0-.69,5,6.17,6.17,0,0,0,.92,3.59A3.3,3.3,0,0,0,826.07,304.93Z" transform="translate(-64.6 -62.02)" fill="#7f1416" stroke="#7f1416" stroke-miterlimit="10"/></svg>