<?xml version="1.0" encoding="UTF-8"?> <svg xmlns="http://www.w3.org/2000/svg" width="34" height="34" viewBox="0 0 34 34"><metadata><?xpacket begin="﻿" id="W5M0MpCehiHzreSzNTczkc9d"?><?xpacket end="w"?></metadata><defs><style> .cls-1 { fill: #9d915d; fill-rule: evenodd; } </style></defs><path class="cls-1" d="M0,17.6V16.362C0.04,15.907.071,15.45,0.122,15a16.524,16.524,0,0,1,1.9-6.047A16.951,16.951,0,0,1,7.749,2.727,16.442,16.442,0,0,1,13.948.26c0.644-.113,1.3-0.175,1.947-0.26H18.1a0.933,0.933,0,0,0,.1.024c0.741,0.1,1.488.164,2.221,0.3a16.1,16.1,0,0,1,4.665,1.692,17.046,17.046,0,0,1,4.835,3.908,16.849,16.849,0,0,1,2.562,4,16.482,16.482,0,0,1,1.341,4.514c0.07,0.481.114,0.964,0.17,1.448v2.21c-0.027.258-.053,0.517-0.082,0.776a17.067,17.067,0,0,1-11.83,14.346,16.341,16.341,0,0,1-3.377.684c-0.357.034-.716,0.06-1.073,0.089H16.4c-0.055-.009-0.11-0.019-0.166-0.025-0.839-.1-1.686-0.153-2.516-0.3A16.1,16.1,0,0,1,8.9,31.94,17.046,17.046,0,0,1,4.3,28.281a16.932,16.932,0,0,1-4.2-9.572C0.055,18.338.03,17.966,0,17.6Zm33.153-.612a16.14,16.14,0,1,0-16.3,16.143A16.145,16.145,0,0,0,33.153,16.983ZM18.779,14.316l0.032,0c0,0.025,0,.05.005,0.076,0.022,0.924.035,1.85,0.069,2.773C18.9,17.634,18.956,18.1,19,18.559a8.338,8.338,0,0,0,.457,2.131,2.687,2.687,0,0,0,2.454,1.777,5.613,5.613,0,0,0,1.637-.116c0.895-.224,1.793-0.438,2.679-0.693,0.7-.2,1.381-0.473,2.08-0.681a4.2,4.2,0,0,1,.955-0.138c0.45-.024.9-0.026,1.352-0.009a0.213,0.213,0,0,0,.239-0.1c0.331-.5.668-1,1-1.5,0.066-.1.117-0.208,0.194-0.344-0.371,0-.694.01-1.015,0a5.429,5.429,0,0,1-2.133-.439c-0.722-.343-1.413-0.75-2.124-1.118a5.565,5.565,0,0,0-1.97-.644,2.186,2.186,0,0,0-1.937.72,6.408,6.408,0,0,0-1.214,2c-0.069.171-.135,0.342-0.2,0.514a1.2,1.2,0,0,0,.227-0.227,3.664,3.664,0,0,1,1.261-.867,1.989,1.989,0,0,1,.911-0.183,7.851,7.851,0,0,1,1.58.315c0.525,0.161,1.022.41,1.555,0.63a1.042,1.042,0,0,1-.089.1,4.847,4.847,0,0,1-2.12.863,10.357,10.357,0,0,1-2.153.13,8.239,8.239,0,0,1-1.178-.094,1.5,1.5,0,0,1-1.079-1.011,5.029,5.029,0,0,1-.4-1.563c-0.076-.825-0.179-1.649-0.232-2.475-0.049-.76-0.039-1.523-0.073-2.285-0.023-.519-0.05-1.041-0.124-1.555a1.544,1.544,0,0,0-.666-1.354c-0.042.128-.093,0.256-0.126,0.389-0.152.617-.3,1.236-0.445,1.857-0.193.838-.39,1.675-0.562,2.518a10.289,10.289,0,0,1-.714,2.285,9.71,9.71,0,0,1-2.727,3.466,12.7,12.7,0,0,1-3.036,1.845,11.111,11.111,0,0,1-2.135.754,0.678,0.678,0,0,0-.163.1L9.679,23.62a9.017,9.017,0,0,0,2.9-.2,7.528,7.528,0,0,0,2.67-1.2,5.852,5.852,0,0,0,1.66-1.752A11.053,11.053,0,0,0,17.957,17.8c0.274-.962.466-1.947,0.694-2.923C18.694,14.689,18.736,14.5,18.779,14.316ZM9.705,8.158c-0.274.456-.535,0.883-0.786,1.316a0.748,0.748,0,0,0-.159.391c0.064,0.471.175,0.935,0.26,1.4,0.14,0.777.28,1.555,0.407,2.336,0.085,0.526.153,1.054,0.217,1.583q0.123,1.011.225,2.027c0.026,0.266,0,.538.035,0.8a7.082,7.082,0,0,1-.086,2.1,1.31,1.31,0,0,1-.443.88,4.846,4.846,0,0,1-2.744.95,4.786,4.786,0,0,1-2.4-.423,1.6,1.6,0,0,1-.978-1.056,3.508,3.508,0,0,1,.134-1.907c0.134-.475.329-0.933,0.5-1.4a0.256,0.256,0,0,0-.063.041,6.868,6.868,0,0,0-1.311,2.287,3.637,3.637,0,0,0-.075,1.98,2.8,2.8,0,0,0,1.051,1.584,4.134,4.134,0,0,0,1.57.678,4.128,4.128,0,0,0,3.019-.378A6.76,6.76,0,0,0,10.209,21.4a3.346,3.346,0,0,0,.7-2.261c-0.019-.372-0.029-0.746-0.049-1.118-0.022-.4-0.045-0.8-0.077-1.2-0.056-.692-0.12-1.384-0.181-2.077-0.045-.511-0.1-1.023-0.131-1.536A9.107,9.107,0,0,1,10.479,12a3.958,3.958,0,0,1,.484-1.628A4.853,4.853,0,0,1,9.705,8.158Zm1.453,3.508a1.7,1.7,0,0,0-.036.259c0.012,0.522.033,1.043,0.043,1.564a1.234,1.234,0,0,0,.668,1.158c0.409,0.21.841,0.378,1.268,0.551a2.866,2.866,0,0,1,1.172.765,6.006,6.006,0,0,1,1.02,1.854c0.126,0.345.242,0.693,0.369,1.059A6.556,6.556,0,0,0,11.158,11.666Z"></path></svg> 