<?xml version="1.0" standalone="no"?>
<!DOCTYPE svg PUBLIC "-//W3C//DTD SVG 20010904//EN"
 "http://www.w3.org/TR/2001/REC-SVG-20010904/DTD/svg10.dtd">
<svg version="1.0" xmlns="http://www.w3.org/2000/svg"
 width="4501.000000pt" height="4501.000000pt" viewBox="0 0 4501.000000 4501.000000"
 preserveAspectRatio="xMidYMid meet">

<g transform="translate(0.000000,4501.000000) scale(0.100000,-0.100000)"
fill="#000000" stroke="none">
<path d="M23225 26599 c-369 -49 -674 -314 -781 -676 -31 -107 -43 -284 -25
-388 40 -236 174 -540 388 -877 41 -65 72 -122 69 -127 -5 -8 -583 -411 -622
-434 -12 -7 -136 88 -256 195 l-77 69 59 82 c71 98 160 267 188 357 63 197 56
437 -19 632 -31 79 -73 128 -149 175 -104 63 -266 70 -382 16 -170 -80 -238
-213 -238 -468 0 -152 23 -253 90 -393 59 -123 113 -206 209 -322 l71 -85 -43
-43 c-48 -50 -225 -201 -244 -209 -7 -3 -35 15 -62 39 -109 99 -305 218 -461
281 -47 19 -118 49 -159 66 -343 144 -735 184 -1039 105 -119 -31 -291 -112
-394 -186 l-76 -56 -74 55 c-207 155 -387 223 -585 223 -196 0 -330 -58 -480
-205 -102 -100 -133 -155 -158 -272 -100 -470 340 -800 1200 -900 205 -23 618
-23 800 1 569 74 1078 295 1414 612 l69 65 74 -60 c40 -32 106 -91 146 -130
l73 -72 -43 -50 c-137 -160 -235 -322 -290 -479 -31 -91 -32 -101 -33 -250 0
-211 30 -314 118 -401 158 -155 417 -155 575 -1 38 38 53 63 75 127 77 224 77
451 1 654 -34 90 -113 230 -181 321 l-56 74 49 44 c66 58 255 212 274 222 11
6 103 -53 325 -207 171 -118 311 -218 313 -222 1 -4 -38 -72 -88 -152 -105
-167 -266 -485 -309 -612 -45 -128 -71 -270 -71 -379 1 -415 282 -781 691
-898 113 -33 315 -38 440 -12 380 79 672 384 734 767 27 162 13 293 -51 485
-56 170 -243 531 -388 752 l-18 27 133 98 c73 54 214 157 313 229 l180 132 96
-74 c52 -40 126 -102 165 -137 l69 -64 -50 -69 c-241 -333 -300 -626 -191
-954 39 -119 85 -173 195 -228 71 -35 80 -37 171 -36 114 0 182 23 262 86 106
84 153 212 153 418 0 143 -15 215 -73 351 -45 104 -147 261 -234 362 l-65 74
76 75 c43 42 108 101 147 132 l69 56 46 -43 c322 -310 832 -544 1355 -621 335
-50 760 -43 1100 18 538 96 890 307 975 584 40 129 19 329 -47 442 -37 62
-156 179 -229 223 -115 70 -184 90 -325 95 -105 4 -139 1 -210 -17 -108 -27
-280 -113 -391 -196 l-87 -64 -70 52 c-209 157 -447 230 -746 229 -252 -1
-447 -43 -730 -159 -271 -111 -398 -181 -554 -308 l-83 -66 -41 28 c-22 15
-88 73 -146 129 l-105 101 50 59 c138 159 255 366 294 519 42 161 37 322 -12
473 -29 87 -104 169 -197 215 -62 30 -72 32 -176 32 -104 0 -114 -2 -175 -32
-94 -46 -135 -85 -170 -157 -53 -112 -74 -221 -74 -386 1 -116 5 -161 22 -225
28 -104 125 -299 202 -405 l61 -85 -73 -69 c-86 -81 -231 -196 -248 -196 -10
0 -580 410 -618 445 -10 9 -1 30 46 106 319 509 440 849 403 1134 -27 203
-117 389 -261 535 -96 98 -142 132 -261 191 -150 75 -366 111 -534 88z m375
-158 c123 -41 214 -96 306 -184 218 -206 304 -497 231 -777 -30 -118 -100
-288 -177 -437 -57 -110 -195 -347 -229 -391 l-17 -23 -124 92 c-69 50 -131
97 -139 104 -12 12 -6 24 36 82 212 286 333 541 333 698 -1 256 -212 465 -470
465 -194 0 -353 -104 -437 -285 -35 -78 -44 -216 -18 -315 33 -132 172 -378
326 -581 34 -44 59 -82 57 -83 -21 -18 -270 -187 -280 -191 -9 -4 -40 37 -90
117 -190 307 -285 507 -346 727 -35 127 -36 295 -4 413 79 290 308 514 600
588 62 16 103 19 212 16 120 -3 145 -6 230 -35z m-146 -511 c51 -16 79 -33
124 -75 119 -110 146 -239 84 -403 -46 -124 -143 -290 -264 -455 l-51 -68 -63
87 c-131 177 -233 362 -269 488 -54 187 64 391 252 435 63 15 117 12 187 -9z
m-1575 -407 c29 -9 72 -34 96 -55 38 -33 49 -52 70 -119 36 -113 48 -210 42
-314 -8 -121 -28 -189 -92 -320 -51 -105 -147 -255 -163 -255 -11 0 -109 121
-161 199 -58 86 -114 200 -143 291 -19 61 -23 97 -23 195 0 227 63 339 215
386 43 13 105 10 159 -8z m3143 -11 c97 -43 142 -121 169 -293 19 -124 -17
-283 -99 -444 -45 -86 -166 -259 -211 -299 -25 -23 -20 -27 -96 85 -174 257
-222 513 -143 769 28 89 42 115 84 146 84 64 201 79 296 36z m-1512 -888 c72
-53 130 -99 130 -103 0 -15 -269 -383 -288 -395 -9 -5 -82 86 -210 261 -67 92
-79 113 -67 123 17 14 299 210 303 210 1 0 61 -43 132 -96z m-4748 -133 c156
-40 297 -125 494 -297 168 -147 267 -215 409 -285 358 -175 660 -151 944 74
67 54 183 186 240 275 18 28 36 52 41 52 16 0 218 -108 280 -150 66 -44 183
-137 188 -149 1 -3 -25 -30 -58 -59 -340 -299 -775 -492 -1280 -566 -524 -77
-1172 -5 -1546 173 -235 112 -350 232 -385 401 -13 64 -1 157 32 246 42 112
213 249 360 288 77 21 192 19 281 -3z m1623 -11 c115 -25 332 -93 359 -113 18
-13 17 -18 -30 -83 -64 -91 -206 -230 -276 -272 -31 -18 -89 -45 -130 -60 -66
-24 -86 -27 -208 -26 -121 0 -144 3 -220 28 -157 52 -342 158 -460 264 l-54
48 66 47 c126 90 273 151 440 183 109 20 384 12 513 -16z m6436 14 c169 -29
362 -112 464 -199 l40 -34 -40 -36 c-69 -61 -247 -177 -335 -218 -118 -55
-251 -87 -359 -87 -238 0 -452 131 -621 380 -47 69 -53 61 83 109 266 93 541
124 768 85z m1384 1 c105 -27 183 -73 271 -160 103 -102 129 -166 129 -315 0
-87 -3 -101 -32 -161 -78 -158 -257 -281 -539 -372 -458 -147 -1072 -173
-1559 -66 -303 67 -601 190 -834 343 -104 68 -228 165 -276 216 l-30 32 43 38
c111 99 429 283 439 253 10 -30 113 -164 182 -236 123 -129 248 -207 398 -248
95 -27 262 -29 368 -6 226 49 450 177 684 391 266 242 537 347 756 291z
m-4153 -268 c159 -116 287 -211 285 -212 -187 -139 -572 -418 -581 -421 -6 -2
-31 24 -55 58 -25 35 -94 130 -155 212 -61 82 -110 152 -109 156 1 4 51 72
110 151 59 80 128 174 153 211 25 36 50 63 55 60 6 -3 139 -100 297 -215z
m-970 33 c63 -85 131 -175 151 -199 l36 -45 -38 -45 c-46 -55 -245 -323 -259
-347 -5 -9 -16 -15 -23 -11 -26 10 -573 393 -576 403 -3 12 580 415 588 406 3
-4 58 -77 121 -162z m-1173 -58 c36 -32 100 -85 141 -118 41 -32 77 -63 78
-68 2 -4 -32 -36 -75 -70 -43 -35 -109 -91 -146 -126 l-68 -63 -87 84 c-48 46
-111 104 -141 129 l-53 45 58 47 c33 25 95 80 139 122 44 41 82 75 84 76 2 0
34 -26 70 -58z m3006 7 c28 -28 89 -84 136 -124 l87 -72 -87 -71 c-47 -39
-110 -96 -140 -126 l-54 -55 -85 74 c-46 41 -113 96 -148 122 -35 27 -63 51
-64 54 0 3 37 35 83 71 45 36 109 91 142 122 33 30 65 55 70 56 6 0 33 -23 60
-51z m-1469 -421 c157 -212 196 -268 192 -278 -4 -12 -249 -190 -261 -190 -5
0 -78 48 -163 106 l-154 106 47 67 c78 111 234 311 241 311 4 0 48 -55 98
-122z m-1558 -294 c198 -273 247 -533 154 -817 -20 -63 -33 -85 -65 -112 -100
-86 -249 -90 -359 -10 -56 41 -72 70 -99 172 -48 189 -1 402 133 610 55 83
166 223 179 223 5 0 30 -29 57 -66z m3047 -12 c186 -221 282 -474 255 -669 -5
-43 -19 -106 -31 -140 -61 -184 -315 -237 -452 -95 -42 44 -81 157 -97 283
-18 145 13 306 87 454 47 93 153 247 167 242 6 -2 38 -36 71 -75z m-1667 -251
c1 -4 -18 -34 -44 -67 -81 -104 -193 -279 -247 -385 -79 -156 -92 -203 -92
-340 0 -114 0 -116 39 -194 51 -103 117 -170 220 -220 72 -36 87 -40 176 -43
160 -7 268 35 370 144 120 129 155 272 110 448 -32 126 -145 335 -293 541
l-64 90 131 97 c72 53 136 96 141 94 20 -5 167 -254 258 -436 152 -302 206
-500 186 -676 -38 -339 -272 -611 -604 -705 -104 -30 -297 -33 -394 -6 -151
41 -257 98 -363 196 -195 180 -295 444 -259 688 31 220 179 552 397 890 l53
82 138 -95 c76 -52 139 -98 141 -103z m154 -213 c159 -225 254 -413 273 -541
5 -29 1 -67 -9 -108 -43 -167 -200 -281 -367 -266 -216 19 -364 235 -304 443
24 83 82 205 151 315 72 113 171 249 183 249 4 0 37 -42 73 -92z"/>
<path d="M30501 20249 l-125 -351 -11 56 c-12 60 -35 97 -79 130 -23 18 -42
21 -119 20 -101 0 -165 -20 -273 -85 -238 -145 -414 -470 -415 -767 0 -144 26
-213 100 -263 29 -20 47 -24 115 -24 72 0 89 4 151 34 84 42 186 140 264 256
70 104 70 104 60 53 -12 -64 -11 -155 3 -202 17 -57 82 -119 141 -135 158 -45
329 43 470 240 67 95 187 300 181 310 -12 20 -26 4 -85 -98 -123 -209 -232
-332 -335 -380 -134 -61 -237 -35 -264 67 -20 73 10 174 237 794 118 325 223
615 234 644 l18 52 -72 0 -72 0 -124 -351z m-233 -199 c50 -31 65 -78 60 -180
-13 -211 -178 -542 -362 -726 -86 -85 -150 -123 -220 -131 -156 -18 -179 158
-66 482 134 380 424 655 588 555z"/>
<path d="M32301 20249 l-125 -351 -11 56 c-12 60 -35 97 -79 130 -23 18 -42
21 -119 20 -101 0 -165 -20 -273 -85 -238 -145 -414 -470 -415 -767 0 -144 26
-213 100 -263 29 -20 47 -24 115 -24 72 0 89 4 151 34 84 42 186 140 264 256
70 104 70 104 60 53 -12 -64 -11 -155 3 -202 17 -57 82 -119 141 -135 158 -45
329 43 470 240 67 95 187 300 181 310 -12 20 -26 4 -85 -98 -123 -209 -232
-332 -335 -380 -134 -61 -237 -35 -264 67 -20 73 10 174 237 794 118 325 223
615 234 644 l18 52 -72 0 -72 0 -124 -351z m-233 -199 c50 -31 65 -78 60 -180
-13 -211 -178 -542 -362 -726 -86 -85 -150 -123 -220 -131 -156 -18 -179 158
-66 482 134 380 424 655 588 555z"/>
<path d="M27510 20575 c-11 -14 -11 -24 -1 -58 36 -120 41 -148 41 -230 0
-349 -270 -937 -542 -1181 -202 -182 -398 -157 -398 50 0 92 26 174 220 706
99 271 180 495 180 500 0 4 -31 8 -69 8 -66 0 -69 -1 -79 -27 -118 -337 -305
-828 -339 -893 -155 -293 -349 -484 -474 -467 -120 16 -151 121 -95 312 21 69
209 557 287 744 24 59 59 219 59 273 0 145 -119 214 -276 161 -64 -21 -175
-132 -231 -230 -68 -119 -117 -233 -104 -246 14 -14 12 -17 63 93 56 121 106
198 171 268 85 90 171 116 218 66 52 -56 22 -207 -102 -509 -224 -545 -241
-595 -242 -725 -1 -91 8 -118 59 -179 45 -54 98 -76 184 -76 64 0 84 5 135 30
73 36 191 150 262 252 l51 73 4 -89 c5 -119 40 -191 112 -236 45 -27 58 -30
131 -30 76 0 87 3 170 44 227 112 467 458 614 886 71 203 95 329 95 500 1 134
-1 154 -19 185 -24 40 -63 51 -85 25z"/>
<path d="M8672 20471 c-181 -62 -283 -208 -470 -666 -170 -417 -218 -520 -294
-636 l-50 -76 -86 18 c-96 21 -265 25 -324 9 -124 -35 -132 -147 -13 -179 93
-25 265 -5 367 43 l53 25 80 -25 c326 -102 516 -108 678 -22 74 40 189 146
260 241 74 98 190 294 182 307 -12 20 -24 9 -60 -56 -99 -181 -214 -325 -304
-383 -95 -61 -151 -75 -306 -75 -113 0 -164 6 -266 27 -70 15 -139 31 -154 37
l-27 10 52 53 c125 127 235 336 376 715 128 346 181 449 274 536 99 93 201
104 229 25 16 -48 14 -76 -17 -164 -30 -86 -97 -197 -169 -281 -28 -34 -41
-57 -37 -68 3 -9 9 -16 13 -16 9 0 132 127 169 177 18 22 47 72 65 110 27 57
32 82 35 153 3 97 -6 123 -57 157 -43 29 -123 30 -199 4z m-1007 -1406 c33 -7
73 -19 89 -25 29 -11 29 -11 9 -25 -56 -39 -240 -58 -325 -34 -27 7 -40 17
-44 35 -17 69 97 90 271 49z"/>
<path d="M15160 20473 c-63 -22 -174 -137 -232 -238 -67 -117 -112 -225 -99
-238 14 -14 12 -17 63 93 103 222 229 359 330 360 15 0 40 -11 55 -24 27 -23
28 -28 28 -113 0 -52 -8 -118 -19 -163 -10 -41 -106 -316 -214 -610 -107 -294
-197 -543 -200 -552 -4 -16 4 -18 66 -18 67 0 70 1 80 28 151 421 362 983 389
1032 105 196 248 372 328 405 79 33 161 6 198 -65 26 -50 17 -157 -23 -285
-25 -76 -357 -1000 -395 -1098 -7 -16 -1 -18 66 -15 l73 3 181 495 c168 461
186 503 255 618 92 152 183 267 247 310 93 62 195 49 235 -29 43 -83 15 -195
-132 -544 -158 -376 -200 -514 -200 -663 1 -167 89 -243 269 -230 159 12 281
124 463 428 72 120 84 146 72 153 -9 5 -17 7 -18 5 -1 -1 -34 -57 -73 -123
-164 -277 -285 -396 -421 -412 -155 -18 -193 121 -107 387 21 63 81 216 135
340 128 296 162 401 164 505 1 93 -14 143 -57 191 -49 57 -100 78 -187 79
-127 0 -204 -57 -328 -244 l-77 -116 0 95 c0 78 -4 102 -22 135 -43 81 -113
125 -209 133 -120 9 -220 -61 -333 -234 -36 -56 -70 -109 -76 -119 -7 -12 -10
17 -10 97 0 101 -3 118 -25 162 -14 28 -37 59 -52 70 -37 26 -128 31 -188 9z"/>
<path d="M17725 20405 c-16 -15 -25 -36 -25 -55 0 -19 9 -40 25 -55 15 -16 36
-25 55 -25 19 0 40 9 55 25 16 15 25 36 25 55 0 19 -9 40 -25 55 -15 16 -36
25 -55 25 -19 0 -40 -9 -55 -25z"/>
<path d="M33445 20405 c-16 -15 -25 -36 -25 -55 0 -19 9 -40 25 -55 15 -16 36
-25 55 -25 19 0 40 9 55 25 16 15 25 36 25 55 0 19 -9 40 -25 55 -15 16 -36
25 -55 25 -19 0 -40 -9 -55 -25z"/>
<path d="M12875 20338 c-3 -7 -22 -60 -44 -118 l-39 -105 -136 -3 c-128 -2
-136 -4 -136 -22 0 -19 7 -20 125 -20 69 0 125 -3 125 -7 0 -4 -56 -162 -124
-352 -128 -357 -155 -459 -141 -544 28 -170 158 -242 350 -191 152 39 291 176
444 437 56 96 66 127 42 127 -4 0 -38 -52 -76 -115 -134 -226 -261 -354 -394
-395 -115 -36 -199 -19 -234 50 -40 77 -15 175 196 755 l84 230 152 3 c143 2
151 4 151 22 0 19 -7 20 -140 20 -77 0 -140 4 -140 9 0 4 18 56 40 115 22 58
40 108 40 111 0 3 -32 5 -70 5 -47 0 -72 -4 -75 -12z"/>
<path d="M22355 20338 c-3 -7 -22 -60 -44 -118 l-39 -105 -136 -3 c-128 -2
-136 -4 -136 -22 0 -19 7 -20 125 -20 69 0 125 -3 125 -7 0 -4 -56 -162 -124
-352 -128 -357 -155 -459 -141 -544 28 -170 158 -242 350 -191 152 39 291 176
444 437 56 96 66 127 42 127 -4 0 -38 -52 -76 -115 -134 -226 -261 -354 -394
-395 -115 -36 -199 -19 -234 50 -40 77 -15 175 196 755 l84 230 152 3 c143 2
151 4 151 22 0 19 -7 20 -140 20 -77 0 -140 4 -140 9 0 4 18 56 40 115 22 58
40 108 40 111 0 3 -32 5 -70 5 -47 0 -72 -4 -75 -12z"/>
<path d="M11688 20273 c-24 -28 -38 -59 -47 -105 -6 -32 -57 -114 -201 -323
-106 -154 -211 -299 -232 -323 -106 -117 -136 -324 -64 -447 103 -175 417
-145 575 55 63 80 84 145 89 284 5 139 -3 187 -65 391 -45 152 -61 242 -49
289 3 14 29 49 56 76 52 53 61 78 34 104 -21 21 -77 20 -96 -1z m-33 -472 c60
-421 8 -661 -164 -755 -125 -68 -267 -33 -321 79 -39 81 -25 219 28 278 14 16
25 18 67 12 57 -7 78 6 90 58 7 26 -10 87 -24 87 -3 0 -12 4 -20 9 -14 9 9 44
243 376 71 100 71 100 74 65 1 -19 14 -113 27 -209z"/>
<path d="M9963 20095 c-111 -31 -245 -116 -330 -208 -155 -171 -253 -415 -254
-635 0 -144 26 -213 100 -263 29 -20 47 -24 115 -24 72 0 89 4 151 34 84 42
186 140 264 256 70 104 70 104 60 53 -12 -64 -11 -155 3 -202 17 -57 82 -119
141 -135 120 -34 262 13 372 123 87 88 297 411 278 429 -14 15 -25 3 -84 -100
-123 -209 -232 -332 -335 -380 -134 -61 -237 -34 -265 69 -20 75 28 231 281
917 l29 81 -72 0 -73 0 -34 -105 -34 -106 -11 56 c-12 59 -35 96 -79 129 -35
26 -148 32 -223 11z m205 -45 c50 -31 65 -78 60 -180 -13 -211 -178 -542 -362
-726 -86 -85 -150 -123 -220 -131 -156 -18 -179 158 -66 482 134 380 424 655
588 555z"/>
<path d="M17493 19748 c-141 -391 -153 -434 -153 -536 0 -95 15 -140 64 -188
51 -51 105 -68 198 -61 159 11 294 130 456 402 89 151 94 162 77 168 -10 4
-37 -33 -91 -123 -134 -226 -244 -342 -358 -382 -126 -43 -215 -5 -232 101
-11 66 21 174 167 579 77 212 139 389 139 393 0 5 -31 9 -69 9 l-68 0 -130
-362z"/>
<path d="M18697 20068 c-53 -151 -389 -1083 -393 -1090 -3 -4 28 -8 69 -8 l74
0 97 268 c61 166 117 301 148 357 124 221 258 384 357 434 62 32 138 38 186
16 95 -46 99 -146 15 -370 -109 -291 -141 -394 -147 -468 -4 -65 -2 -77 24
-127 46 -89 123 -126 243 -118 119 9 229 82 337 226 76 101 206 319 198 332
-12 20 -24 9 -58 -53 -116 -207 -245 -362 -347 -416 -147 -79 -280 -35 -280
92 0 69 8 96 100 337 115 303 132 408 81 507 -45 88 -126 129 -239 120 -130
-10 -249 -103 -375 -292 -37 -55 -67 -98 -67 -95 0 3 29 88 65 189 36 101 65
188 65 192 0 5 -31 9 -69 9 l-69 0 -15 -42z"/>
<path d="M20462 20083 c-5 -16 -62 -172 -125 -348 -64 -176 -123 -347 -132
-380 -21 -83 -20 -219 4 -270 23 -52 80 -101 133 -116 67 -18 168 -6 235 26
73 36 182 143 253 250 29 44 56 84 60 88 4 5 5 -34 2 -85 -6 -121 8 -170 62
-224 50 -51 105 -68 197 -62 167 12 313 146 481 443 71 126 70 122 53 128 -10
4 -37 -33 -91 -123 -134 -226 -244 -342 -358 -382 -126 -43 -215 -5 -232 101
-11 66 21 174 167 579 77 212 139 389 139 393 0 5 -31 9 -69 9 l-68 0 -102
-282 c-79 -218 -117 -309 -168 -398 -156 -275 -293 -405 -440 -417 -112 -9
-169 49 -159 165 7 85 25 141 176 558 71 197 130 362 130 366 0 4 -31 8 -69 8
-66 0 -69 -1 -79 -27z"/>
<path d="M23696 20099 c-22 -5 -67 -23 -101 -40 -244 -120 -425 -437 -425
-743 0 -168 45 -255 162 -315 58 -29 79 -34 160 -38 278 -14 507 149 712 510
25 43 25 48 10 54 -10 4 -19 2 -21 -4 -2 -6 -30 -53 -61 -105 -40 -65 -89
-125 -162 -199 -89 -89 -118 -111 -190 -146 -100 -49 -188 -68 -271 -60 -86 9
-135 40 -169 106 -34 66 -30 232 10 379 l22 80 96 7 c187 14 327 65 427 157
66 60 95 111 102 183 7 67 -16 117 -69 153 -32 21 -53 26 -116 28 -42 2 -95
-1 -116 -7z m202 -53 c12 -12 17 -33 16 -74 -1 -112 -89 -227 -219 -288 -73
-35 -196 -64 -265 -64 -38 0 -41 2 -34 23 3 12 20 49 37 82 73 146 177 263
280 315 52 26 71 31 115 27 32 -2 60 -10 70 -21z"/>
<path d="M28636 20099 c-22 -5 -67 -23 -101 -40 -244 -120 -425 -437 -425
-743 0 -168 45 -255 162 -315 58 -29 79 -34 160 -38 278 -14 507 149 712 510
25 43 25 48 10 54 -10 4 -19 2 -21 -4 -2 -6 -30 -53 -61 -105 -40 -65 -89
-125 -162 -199 -89 -89 -118 -111 -190 -146 -100 -49 -188 -68 -271 -60 -86 9
-135 40 -169 106 -34 66 -30 232 10 379 l22 80 96 7 c187 14 327 65 427 157
66 60 95 111 102 183 7 67 -16 117 -69 153 -32 21 -53 26 -116 28 -42 2 -95
-1 -116 -7z m202 -53 c12 -12 17 -33 16 -74 -1 -112 -89 -227 -219 -288 -73
-35 -196 -64 -265 -64 -38 0 -41 2 -34 23 3 12 20 49 37 82 73 146 177 263
280 315 52 26 71 31 115 27 32 -2 60 -10 70 -21z"/>
<path d="M33213 19748 c-141 -391 -153 -434 -153 -536 0 -95 15 -140 64 -188
51 -51 105 -68 198 -61 159 11 294 130 456 402 89 151 94 162 77 168 -10 4
-37 -33 -91 -123 -134 -226 -244 -342 -358 -382 -126 -43 -215 -5 -232 101
-11 66 21 174 167 579 77 212 139 389 139 393 0 5 -31 9 -69 9 l-68 0 -130
-362z"/>
<path d="M34417 20068 c-53 -151 -389 -1083 -393 -1090 -3 -4 28 -8 69 -8 l74
0 97 268 c61 166 117 301 148 357 124 221 258 384 357 434 62 32 138 38 186
16 95 -46 99 -146 15 -370 -109 -291 -141 -394 -147 -468 -4 -65 -2 -77 24
-127 46 -89 123 -126 243 -118 119 9 229 82 337 226 76 101 206 319 198 332
-12 20 -24 9 -58 -53 -116 -207 -245 -362 -347 -416 -147 -79 -280 -35 -280
92 0 69 8 96 100 337 115 303 132 408 81 507 -45 88 -126 129 -239 120 -130
-10 -249 -103 -375 -292 -37 -55 -67 -98 -67 -95 0 3 29 88 65 189 36 101 65
188 65 192 0 5 -31 9 -69 9 l-69 0 -15 -42z"/>
<path d="M36523 20095 c-109 -30 -245 -115 -330 -208 -155 -171 -253 -415
-254 -635 0 -144 26 -213 100 -263 29 -20 47 -24 115 -24 72 0 89 4 151 34 82
41 185 139 259 248 27 40 51 71 53 70 6 -7 -188 -531 -218 -588 -46 -85 -110
-153 -176 -185 -109 -54 -288 -40 -354 26 -39 39 -39 70 0 70 40 0 61 24 61
69 0 46 -24 71 -69 71 -97 0 -110 -132 -22 -232 40 -46 98 -69 191 -75 218
-16 400 79 508 264 28 46 113 271 265 693 124 344 230 637 236 653 l11 27 -73
0 -73 0 -34 -105 -34 -106 -11 53 c-17 80 -40 117 -88 139 -50 22 -139 24
-214 4z m205 -45 c50 -31 65 -78 60 -180 -13 -211 -178 -542 -362 -726 -86
-85 -150 -123 -220 -131 -156 -18 -179 158 -66 482 134 380 424 655 588 555z"/>
</g>
</svg>
