<svg id="Layer_1" data-name="Layer 1" xmlns="http://www.w3.org/2000/svg" viewBox="0 0 945.75 264.48"><defs><style>.cls-1{fill:#f7a59f;stroke:#e6dada;}.cls-1,.cls-3{stroke-miterlimit:10;}.cls-2,.cls-3{isolation:isolate;}.cls-3{font-size:70.2px;stroke:maroon;stroke-width:5px;font-family:PetitFormalScript-Regular, Petit Formal Script;}.cls-4{fill:maroon;}</style></defs><path id="a2vbkIf4AB" class="cls-1" d="M640.31,675.82l20.86-12.4,4.86,8.17-52.15,31L609,694.43,629.89,682,570,581.34,455.5,523.76l128.92-76.7-4,128.09ZM463.82,509.72,459,501.55,563.25,439.5l4.88,8.17Z" transform="translate(-105.51 -438.82)"/><path id="aLKGqgiiU" class="cls-1" d="M532.36,675.82l-20.86-12.4-4.86,8.17,52.15,31,4.86-8.18L542.78,682l59.91-100.69,114.48-57.58-128.92-76.7,4,128.09Zm176.49-166.1,4.86-8.17L609.4,439.5l-4.86,8.17Z" transform="translate(-105.51 -438.82)"/><g id="a1j1a8XlVq" class="cls-2"><text class="cls-3" transform="translate(58.43 218.59)">Last Minute Wedding</text></g><path class="cls-4" d="M118.77,622.89A13.6,13.6,0,1,0,132,636.49,13.44,13.44,0,0,0,118.77,622.89Zm0,22.39a8.8,8.8,0,1,1,8.88-8.79A8.84,8.84,0,0,1,118.77,645.28Z" transform="translate(-105.51 -438.82)"/><path class="cls-4" d="M1038,622.89a13.6,13.6,0,1,0,13.25,13.6A13.43,13.43,0,0,0,1038,622.89Zm0,22.39a8.8,8.8,0,1,1,8.89-8.79A8.84,8.84,0,0,1,1038,645.28Z" transform="translate(-105.51 -438.82)"/></svg>