<?xml version="1.0" encoding="UTF-8"?> <!-- Generator: Adobe Illustrator 21.1.0, SVG Export Plug-In . SVG Version: 6.00 Build 0) --> <svg xmlns="http://www.w3.org/2000/svg" xmlns:xlink="http://www.w3.org/1999/xlink" id="Layer_1" x="0px" y="0px" viewBox="0 0 164.5 161.1" style="enable-background:new 0 0 164.5 161.1;" xml:space="preserve"> <style type="text/css"> .st0{clip-path:url(#SVGID_2_);fill:url(#SVGID_3_);} .st1{clip-path:url(#SVGID_5_);fill:url(#SVGID_6_);} .st2{clip-path:url(#SVGID_8_);fill:url(#SVGID_9_);} .st3{clip-path:url(#SVGID_11_);fill:url(#SVGID_12_);} .st4{clip-path:url(#SVGID_14_);fill:url(#SVGID_15_);} </style> <g> <defs> <path id="SVGID_1_" d="M82.1,39.2c-0.3,0.5-0.6,0.9-0.9,1.1c-0.3,0.3-0.9,0.4-1.7,0.4c-0.5,0-1.3-0.1-2.3-0.3 c-0.4-0.1-0.9-0.2-1.5-0.4c-0.6-0.1-1.1-0.2-1.4-0.3c-1.3-0.3-2.7-0.4-4.2-0.4c-3.1,0-5.9,0.8-8.3,2.4c-2.4,1.6-4.3,3.6-5.6,6.1 c-1.3,2.5-2,5-2,7.6c0,1.3,0.2,2.6,0.5,3.8c0.3,1.2,0.9,2.3,1.8,3.5c0.8,1.2,2,2.4,3.5,3.7c1.5,1.3,3.3,2.6,5.4,4 c4,2.6,6.7,4.4,8.2,5.4c1.4,1,2.5,2.1,3.2,3.1c0.7,1.1,1.1,2.3,1.1,3.7c0,2.1-0.9,3.9-2.6,5.4c-1.7,1.5-3.9,2.2-6.5,2.2 c-1.8,0-3.6-0.4-5.5-1.3c-1.9-0.8-3.5-2.2-5-4.1c-1.5-1.9-2.5-4.2-2.9-7h-1.4l-0.3,14.8h1.3c0.5-1.2,1.3-1.8,2.4-1.8 c0.4,0,1,0.1,1.5,0.2c0.6,0.1,1.1,0.2,1.4,0.3c3.4,1,6.4,1.5,9,1.5c2.5,0,4.8-0.4,7-1.1c2.2-0.7,4-1.8,5.6-3.1 c1.6-1.3,2.8-2.9,3.6-4.7c0.8-1.8,1.3-3.8,1.3-6c0-2.4-0.5-4.5-1.5-6.4c-1-1.9-2.4-3.6-4.3-5.2c-1.9-1.6-4.4-3.4-7.3-5.2 c-0.5-0.4-2-1.3-4.4-2.8c-2.1-1.4-3.7-2.6-4.8-3.8c-1-1.1-1.7-2.1-2-2.9c-0.3-0.8-0.4-1.6-0.4-2.4c0-1.4,0.4-2.6,1-3.7 c0.7-1.1,1.7-1.9,2.9-2.5c1.2-0.6,2.5-0.9,4-0.9c2.9,0,5.5,0.9,7.5,2.8c2.1,1.9,3.6,4.5,4.5,7.7h1.4V39.2H82.1z"></path> </defs> <clipPath id="SVGID_2_"> <use xlink:href="#SVGID_1_" style="overflow:visible;"></use> </clipPath> <radialGradient id="SVGID_3_" cx="1.326885e-05" cy="161.053" r="1" gradientTransform="matrix(22.2807 0 0 -22.2807 70.1177 3654.3792)" gradientUnits="userSpaceOnUse"> <stop offset="0" style="stop-color:#9F925E"></stop> <stop offset="1" style="stop-color:#9F925E"></stop> </radialGradient> <rect x="53.6" y="39.2" class="st0" width="33" height="53.7"></rect> </g> <g> <defs> <path id="SVGID_4_" d="M100.7,69.9v1c2.3,0.2,3.7,0.9,4.3,1.9c0.6,1,1,1.9,1,2.8c0,1.5-0.4,3.1-1,4.9l-8.1,22.9l-8.4-21.3 c-1.7,4.8-3.3,7.5-8.2,10.6l12,30.2h1.4l14.9-41.6c1.5-4.2,2.9-6.9,4.3-8.1c1.4-1.2,3-1.9,5-2.2v-1H100.7z"></path> </defs> <clipPath id="SVGID_5_"> <use xlink:href="#SVGID_4_" style="overflow:visible;"></use> </clipPath> <radialGradient id="SVGID_6_" cx="2.095220e-05" cy="161.053" r="1" gradientTransform="matrix(22.9404 0 0 -22.9404 98.945 3791.0012)" gradientUnits="userSpaceOnUse"> <stop offset="0" style="stop-color:#9F925E"></stop> <stop offset="1" style="stop-color:#9F925E"></stop> </radialGradient> <rect x="80.2" y="69.9" class="st1" width="37.5" height="53"></rect> </g> <g> <defs> <path id="SVGID_7_" d="M105,71.1c0.4,0.3,0.8,0.7,1.1,1.1c0.6,1,1.1,2.2,1.1,3.4c0,1.8-0.5,3.7-1.1,5.3l-9.2,25.8l-8.5-21.5 c-1.5,3.4-3.3,5.6-6.8,7.9l11.2,28.3l14.5-40.5c0.9-2.6,2.5-6.7,4.6-8.6c0.5-0.5,1.1-0.9,1.7-1.2H105z"></path> </defs> <clipPath id="SVGID_8_"> <use xlink:href="#SVGID_7_" style="overflow:visible;"></use> </clipPath> <radialGradient id="SVGID_9_" cx="1.013510e-05" cy="161.053" r="1" gradientTransform="matrix(21.0775 0 0 -21.0775 97.6468 3490.8254)" gradientUnits="userSpaceOnUse"> <stop offset="0" style="stop-color:#9F925E"></stop> <stop offset="1" style="stop-color:#9F925E"></stop> </radialGradient> <rect x="81.6" y="71.1" class="st2" width="32" height="50.3"></rect> </g> <g> <defs> <path id="SVGID_10_" d="M62.5,42.7c-2.2,1.4-4,3.3-5.2,5.7c-1.2,2.2-1.8,4.5-1.8,7c0,1.2,0.1,2.3,0.5,3.4c0.3,1.1,0.9,2.2,1.6,3.2 c0.9,1.3,2.1,2.4,3.3,3.5c1.6,1.4,3.4,2.7,5.3,3.9c1.7,1.1,3.4,2.2,5.1,3.3c1.1,0.7,2.1,1.4,3.2,2.1c1.3,0.9,2.6,2.1,3.5,3.4 c0.9,1.3,1.3,2.8,1.3,4.4c0,2.5-1.1,4.6-3,6.3c-2.1,1.8-4.6,2.5-7.3,2.5c-2.1,0-4.1-0.5-6-1.4c-2.2-1-4-2.5-5.5-4.4 c-1-1.3-1.7-2.7-2.3-4.1l-0.2,9.2c0.6-0.6,1.5-0.9,2.5-0.9c0.6,0,1.2,0.1,1.8,0.2c0.5,0.1,1,0.2,1.5,0.3l0,0l0,0 c2.8,0.8,5.8,1.4,8.6,1.4c2.2,0,4.5-0.3,6.6-1c1.9-0.6,3.6-1.6,5.2-2.8c1.4-1.2,2.5-2.6,3.3-4.3c0.8-1.7,1.2-3.6,1.2-5.5 c0-2-0.4-4-1.4-5.8c-1-1.9-2.4-3.5-4.1-4.9c-2.2-1.9-4.7-3.6-7.2-5.1l0,0l0,0c-0.4-0.3-0.9-0.7-1.4-1c-1-0.6-1.9-1.2-2.9-1.8 c-1.7-1.1-3.6-2.4-5-4c-0.8-0.9-1.8-2.1-2.2-3.3c-0.3-0.9-0.5-1.8-0.5-2.8c0-1.6,0.4-3,1.2-4.4c0.8-1.3,2-2.2,3.3-2.9 c1.4-0.7,2.9-1,4.5-1c3.2,0,6,1,8.3,3.1c1.8,1.6,3,3.6,4,5.7v-8.8c0,0-0.1,0.1-0.1,0.1c-0.7,0.5-1.6,0.6-2.4,0.6 c-0.8,0-1.7-0.2-2.5-0.3l0,0l0,0c-0.5-0.1-1-0.2-1.5-0.4c-0.4-0.1-0.9-0.2-1.3-0.3l0,0l0,0c-1.3-0.3-2.6-0.4-3.9-0.4 C67.4,40.5,64.8,41.2,62.5,42.7"></path> </defs> <clipPath id="SVGID_11_"> <use xlink:href="#SVGID_10_" style="overflow:visible;"></use> </clipPath> <radialGradient id="SVGID_12_" cx="2.324269e-05" cy="161.053" r="1" gradientTransform="matrix(21.09 0 0 -21.09 70.14 3462.6926)" gradientUnits="userSpaceOnUse"> <stop offset="0" style="stop-color:#9F925E"></stop> <stop offset="1" style="stop-color:#9F925E"></stop> </radialGradient> <rect x="54.8" y="40.5" class="st3" width="30.7" height="51.2"></rect> </g> <g> <defs> <path id="SVGID_13_" d="M82.3,152.9c1.6-1.8,2-5.5,0-7.2C80.3,147.3,80.6,151.1,82.3,152.9 M82.3,15.4c2-1.7,1.6-5.4,0-7.2 C80.6,10,80.3,13.7,82.3,15.4 M68.3,137.5c8.1-1.9,7.6,5.7,2.4,6.8c-3.4,0.7-7.4-1.2-10.1-2.9c-1-0.6-1.5-1-1.7-1.2l-0.5,0.1 c0.2-0.1,0.3-0.2,0.4-0.3c-0.1-0.1,0-0.1,0,0c0,0,0.1,0.1,0.2,0.2l6.4-1c1,1.8,2.4,6.1,5.7,2.2c-1.1-2.3-0.9-2-2.7-0.6l-0.5,0.4 C67.1,139.5,67.5,139.1,68.3,137.5 M93.7,144.4c-5.2-1.1-5.7-8.8,2.4-6.8c0.8,1.6,1.3,1.9,0.4,3.7l-0.5-0.4 c-1.8-1.3-1.6-1.7-2.7,0.6c3.3,3.9,4.7-0.4,5.7-2.2l6.4,1c0.1-0.1,0.1-0.2,0.2-0.2c0-0.1,0.1-0.1,0,0c0,0.1,0.1,0.2,0.4,0.3 l-0.5-0.1c-0.2,0.2-0.7,0.6-1.7,1.2c-2.3,1.4-5.6,3-8.5,3C94.7,144.5,94.2,144.5,93.7,144.4 M79,158.5c-5.4-3.6-6.9-12.8-1.2-18.6 c1.7-1.7,2.7-2.8,4.5-3.5c1.8,0.7,2.8,1.8,4.5,3.5c5.7,5.8,4.2,15-1.2,18.6c-1,0.7-2.1,1.2-3.3,1.4C81.1,159.7,80,159.2,79,158.5 M41,135.4c5.2-7.2,11.1-7.8,18.3-4.4c2.5,1.2,8.2,2.6,9.6,3.5c-2.7,5.4-8.9,4.3-13.5,3.3c-2.1-0.5-3.8-0.9-4.9-0.8 c-3.7,0.4-6,3.6-4.1,7.4c1.9,3.9,5.2,1.9,6.1-0.3c1.9-4.5-2.7-3.5-4-2.1c-0.3,0.3,1.1-0.3,2-0.3c1.1-0.1,1.7,0.4,0.4,1.8 c-2.8,2.3-4.2,0.1-3.9-2c0.3-2,2.1-3.9,5.8-2.4c2.7,1.1,5.3,4.9,3.8,8.9c-1.2,3.2-3.8,4.6-6.5,4.6C43.1,152.7,34.7,144.2,41,135.4 M95.7,134.5c1.4-0.9,7.1-2.3,9.6-3.5c7.1-3.4,13.1-2.8,18.3,4.4c8.8,12.4-11.3,24-15.5,12.7c-1.5-4,1.1-7.8,3.8-8.9 c3.6-1.5,5.5,0.4,5.8,2.4c0.3,2.1-1.1,4.2-3.9,2c-1.3-1.5-0.6-1.9,0.4-1.8c0.9,0.1,2.3,0.6,2,0.3c-1.3-1.4-5.8-2.4-4,2.1 c0.9,2.3,4.2,4.2,6.1,0.3c1.8-3.8-0.5-7-4.1-7.4c-1-0.1-2.8,0.4-4.9,0.8c-1.9,0.4-4,0.8-6,0.8C100.2,138.7,97.3,137.7,95.7,134.5 M37.7,128.8c-2.7-2.9-3.4-3.8-5.8-7.9l6.3,2.1c-1.5,3.2,0.2,5.7,3.3,4.9c1.1-3.2-1-2-1-2l-0.4,0.6c-3.1-2.4,3.1-5.9,5.8-0.2 c-0.6,2.6-2.3,4-4.2,4C40.4,130.4,39,129.9,37.7,128.8 M126.3,123.1l6.3-2.1c-2.4,4.1-3.1,4.9-5.8,7.9c-3.4,2.7-7.2,1.9-8.2-2.4 c2.7-5.8,8.8-2.3,5.8,0.2L124,126c0,0-2.2-1.2-1,2c0.4,0.1,0.8,0.2,1.1,0.2C126.4,128.2,127.6,125.8,126.3,123.1 M12.5,115 c1.4-6.7,10.6-10.2,17.5-8.4c1.9,0.6,5.9,10,13.3,14c-7.2,3.8-12.5-3.5-14.3-5c-4.2-3.5-8.8-3.1-10.4,0.1 c-3.2,6.4,5.9,7.9,6.4,3.4c0.3-2.8-2.1-2.8-3.2-1.6c-0.8,0.8,0.6,0.2,1.6,1.2c-3,1.7-3.8,0-3.3-1.7c0.7-2.4,4.2-4.8,8.5,2.5 c0.4,2.2-0.2,4.6-2.7,6.5c-1.5,1.2-3.1,1.7-4.6,1.7C15.9,127.8,11.3,121.2,12.5,115 M121.2,120.7c7.4-4,11.4-13.4,13.3-14 c6.9-1.9,16.1,1.6,17.5,8.4c1.6,7.9-6.5,16.5-13.4,11c-2.6-1.8-3.2-4.3-2.7-6.5c4.3-7.3,7.8-4.9,8.5-2.5c0.5,1.7-0.4,3.4-3.3,1.7 c1.1-1,2.4-0.4,1.6-1.2c-1.1-1.2-3.5-1.2-3.2,1.6c0.5,4.4,9.5,2.9,6.4-3.4c-1.6-3.1-6.2-3.5-10.4-0.1c-1.4,1.2-5.2,6.1-10.3,6.1 C124,121.8,122.6,121.5,121.2,120.7 M18.2,89.9c0.7,2.3,3.2,4.7,4.3,5.7c-1.1,0.6-2.1,1.4-2.1,3.2c0.1,3.1,2.8,2.1,3.8,1.1 c0.6-0.6,0.5-1.3-1.4-0.9c-0.2,0-0.3-0.5-0.2-1.1c0.1-0.7,0.7-1.4,2.1-1c6.1,1.7,2.1,6.9-2,6.9C19.5,103.7,16.4,100.5,18.2,89.9 M144.2,98.8c0-1.8-1-2.6-2.1-3.2c1.1-0.9,3.6-3.4,4.3-5.7c4,24.1-17.3,9.8-6.5,6.9c1.4-0.4,1.9,0.3,2.1,1 c0.1,0.6-0.1,1.2-0.2,1.1c-1.9-0.4-2,0.3-1.4,0.9c0.5,0.5,1.4,1,2.2,1C143.4,100.8,144.1,100.3,144.2,98.8 M1.7,80.5 c-1.3-6.5,3.1-14,10.6-10.6c2.6,1.2,5.4,5,2.9,9c-0.7,1.1-3,1-4.2,0.7c-1.1-0.3-1.6-4.6,2.2-0.9c1.3-7.3-8.5-3.9-4.4,1.8 c-4.1,5.7,5.7,9.1,4.4,1.8c-3.8,3.7-3.3-0.6-2.2-0.9c1.2-0.3,3.5-0.4,4.2,0.7c2.5,4-0.3,7.9-2.9,9C11,91.7,9.8,92,8.8,92 C3.5,92,0.6,85.9,1.7,80.5 M149.3,78.9c-2.5-4,0.3-7.9,2.9-9c7.4-3.4,11.9,4.1,10.6,10.6c1.3,6.5-3.1,14-10.6,10.6 c-2.6-1.2-5.4-5-2.9-9c0.7-1.1,3-1,4.2-0.7c1.1,0.3,1.6,4.6-2.2,0.9c-1.3,7.3,8.5,3.9,4.4-1.8c4.1-5.7-5.7-9.1-4.4-1.8 c3.8-3.7,3.3,0.6,2.2,0.9c-0.4,0.1-1.1,0.2-1.7,0.2C150.8,79.8,149.7,79.6,149.3,78.9 M28.3,65c-2.9,13.6-2.9,17.5,0,31.1 c-8.3-1-8.9-7.3-10.3-12c-0.4-1.5-1.1-2.7-1.8-3.5c0.8-0.9,1.4-2,1.8-3.5C19.4,72.3,20,66,28.3,65L28.3,65 M136.2,65 c8.3,1,8.8,7.3,10.3,12c0.5,1.5,1.1,2.7,1.8,3.5c-0.8,0.9-1.4,2-1.8,3.5c-1.4,4.7-1.9,11-10.3,12C139.1,82.5,139.1,78.6,136.2,65 M24.6,64.2c-1.4,0.4-1.9-0.3-2.1-1c-0.1-0.6,0-1.2,0.2-1.1c1.9,0.4,2-0.3,1.4-0.9c-1-1-3.7-2-3.8,1.1c0,1.8,1,2.6,2.1,3.2 c-1.1,0.9-3.6,3.4-4.3,5.7C14.2,47.1,35.5,61.3,24.6,64.2 M139.9,64.2c-10.9-2.9,10.5-17.2,6.5,6.9c-0.7-2.3-3.2-4.7-4.3-5.7 c1.1-0.6,2.1-1.4,2.1-3.2c-0.1-3.1-2.8-2.1-3.8-1.1c-0.6,0.6-0.5,1.3,1.4,0.9c0.2,0,0.3,0.5,0.2,1.1c-0.1,0.6-0.5,1.1-1.3,1.1 C140.4,64.4,140.2,64.3,139.9,64.2 M12.5,46c-1.6-7.9,6.5-16.5,13.4-11c2.6,1.8,3.2,4.3,2.7,6.5c-4.3,7.3-7.8,4.9-8.5,2.5 c-0.5-1.7,0.4-3.4,3.3-1.7c-1.1,1-2.4,0.4-1.6,1.2c1.1,1.2,3.5,1.2,3.2-1.6c-0.5-4.4-9.5-2.9-6.4,3.4c1.6,3.1,6.2,3.5,10.4,0.1 c1.8-1.5,7.2-8.8,14.3-5c-7.4,4-11.4,13.4-13.3,14c-1.2,0.3-2.6,0.5-3.9,0.5C20,54.9,13.6,51.5,12.5,46 M135.9,41.5 c-0.4-2.2,0.2-4.6,2.7-6.5c6.8-5.5,14.9,3.1,13.4,11c-1.4,6.7-10.6,10.2-17.5,8.4c-1.9-0.6-5.9-10-13.3-14 c7.2-3.8,12.5,3.5,14.3,5c4.2,3.5,8.8,3.1,10.4-0.1c3.2-6.4-5.9-7.9-6.4-3.4c-0.3,2.8,2.1,2.8,3.2,1.6c0.8-0.8-0.6-0.2-1.6-1.2 c3-1.7,3.8,0,3.3,1.7c-0.4,1.2-1.4,2.4-2.9,2.4C140,46.4,138,45.1,135.9,41.5 M37.7,32.2c3.4-2.7,7.2-1.9,8.2,2.4 c-2.7,5.8-8.8,2.3-5.8-0.2l0.4,0.6c0,0,2.2,1.2,1-2c-3.1-0.8-4.8,1.8-3.3,4.9l-6.3,2.1C34.3,36,35,35.2,37.7,32.2 M118.6,34.6 c1-4.3,4.8-5.1,8.2-2.4c2.7,2.9,3.4,3.8,5.8,7.9l-6.3-2.1c1.5-3.2-0.2-5.7-3.3-4.9c-1.1,3.2,1,2,1,2l0.5-0.6 c1.8,1.5,0.4,3.3-1.7,3.3C121.4,37.8,119.7,36.9,118.6,34.6 M79.4,133.4C51.7,132,29.6,109,29.6,80.8c0-29.1,23.5-52.7,52.5-52.7 s52.5,23.6,52.5,52.7c0,28.3-22.2,51.3-50,52.6c-0.8,0-1.6,0-2.3,0c-0.4,0-0.8,0-1.2,0C80.5,133.4,79.9,133.4,79.4,133.4 M60.7,19.5c2.7-1.7,6.7-3.6,10.1-2.9c5.2,1.1,5.7,8.8-2.4,6.8c-0.8-1.6-1.3-1.9-0.4-3.7l0.5,0.4c1.8,1.3,1.6,1.7,2.7-0.6 c-3.3-3.9-4.7,0.4-5.7,2.2l-6.4-1c-0.1,0.1-0.1,0.2-0.2,0.2c0,0.1-0.1,0.1,0,0c0-0.1-0.1-0.2-0.4-0.3l0.5,0.1 C59.2,20.5,59.7,20.2,60.7,19.5 M93.7,16.7c3.4-0.7,7.4,1.2,10.1,2.9c1,0.6,1.5,1,1.7,1.2l0.5-0.1c-0.2,0.1-0.3,0.2-0.4,0.3 c0.1,0.1,0,0.1,0,0c0,0-0.1-0.1-0.2-0.2l-6.4,1c-1-1.8-2.4-6.1-5.7-2.2c1.1,2.3,0.9,2,2.7,0.6l0.5-0.4c0.9,1.8,0.4,2.1-0.4,3.7 c-0.9,0.2-1.7,0.3-2.4,0.3C88.2,23.8,89.1,17.7,93.7,16.7 M41,25.6C32.1,13.3,52.3,1.7,56.5,13c1.5,4-1.1,7.8-3.8,8.9 c-3.6,1.5-5.5-0.4-5.8-2.4c-0.3-2.1,1.1-4.2,3.9-2c1.3,1.5,0.6,1.9-0.4,1.9c-0.9-0.1-2.3-0.6-2-0.3c1.3,1.4,5.8,2.4,4-2.1 c-0.9-2.3-4.2-4.2-6.1-0.3c-1.8,3.8,0.5,7,4.1,7.4c1,0.1,2.8-0.4,4.9-0.8c4.6-1,10.8-2.1,13.5,3.3c-1.4,0.9-7.1,2.3-9.6,3.5 c-2.7,1.3-5.3,2-7.6,2C47.7,32.1,44.2,30.1,41,25.6 M111.7,21.9c-2.7-1.1-5.3-4.9-3.8-8.9c4.3-11.3,24.4,0.3,15.5,12.7 c-5.2,7.2-11.1,7.8-18.3,4.4c-2.5-1.2-8.2-2.6-9.6-3.5c2.7-5.4,8.9-4.3,13.5-3.3c2.1,0.5,3.8,0.9,4.9,0.8c3.7-0.4,6-3.6,4.1-7.4 c-1.9-3.9-5.2-1.9-6.1,0.3c-1.9,4.5,2.7,3.5,4,2.1c0.3-0.3-1.1,0.3-2,0.3c-1.1,0.1-1.7-0.4-0.4-1.9c2.8-2.2,4.2-0.1,3.9,2 c-0.2,1.5-1.3,2.9-3.4,2.9C113.5,22.5,112.7,22.3,111.7,21.9 M77.8,21.1c-5.7-5.8-4.2-15,1.2-18.6c1-0.7,2.1-1.2,3.3-1.4 c1.1,0.3,2.3,0.8,3.3,1.4c5.4,3.6,6.9,12.8,1.2,18.6c-1.7,1.7-2.7,2.8-4.5,3.5C80.5,23.9,79.5,22.9,77.8,21.1 M82.3,0 c-7.4,1.7-9.9,7.2-9.4,15.2c-3.7-0.9-7-1.4-9.7-3.1c-3-1.9-4-6.6-0.6-8.6c3.3-1.9,7.6-0.6,7.2,3.4c-1.7,7.1-9.7,1.6-5.8,0.4 c1.2-0.4,1.2,0.2,1.1,0.7c-0.1,0.6-0.4,1.2,0.7,0.6c1.7-0.9,0.5-2.2-0.5-2.6C62.7,5,61.5,8.1,62.9,10c3.1,4.3,10.4-0.5,7.3-6 c-2.4-4.2-9.1-2.7-10.3,1.4c-1.6,5.4,3.5,8.6,7.4,9.7l-9.5,4.5c1.2-4.6,0.2-8.7-2.9-10.7C43,2.1,31.1,19.3,40.9,28.5 c-10.6,4.7-14.9,0.9-15.1-3c-0.2-3.3,2.7-6.7,7.1-4.4c4.4,2.7,0.4,9.3-3,6.5c-1.1-0.9-0.7-4.1,2-1.1c-0.3-3.6-2.8-3.5-3.9-2 c-1.1,1.5-0.6,4.8,4,5c4.2,0.2,7-4.5,3.1-8.6c-5.2-5.6-11-0.8-11.2,4.1c-0.2,3.8,2.8,7.5,11.9,6.5c-2.4,2.8-3.4,5-5.4,7.9 c-0.3-3.1-1.4-4.5-4.3-6.5c-11.1-7.5-25.4,15.6-6.1,23c-2.3,2.4-3.1,4.9-6.6,6.6c-5.9,2.9-8.6-0.5-8.6-4c0-3.3,2.3-6.6,6.6-4.4 c3.6,1.9,1.1,9.5-2.5,6c1.3,0.1,1.6-0.7,1.5-1.4C10,57.6,8.7,56.5,7.6,58c-1,1.4-0.6,4.2,2.9,4.1c1.8,0,4-2,3.9-4.6 C14,49.9,3.2,50.4,3.5,58.8c1.1,10.1,12,5.2,13.8,2.1c-2.2,5.4-1.1,9.2-0.9,10.3c-8.9-8.9-17.5-0.1-16.2,9.3 c-1.3,9.3,7.4,18.2,16.2,9.3c-0.2,1.1-1.3,4.9,0.9,10.3c-1.8-3.1-12.7-8.1-13.8,2.1c-0.3,8.5,10.5,9,10.9,1.3 c0.1-2.6-2-4.6-3.9-4.6c-3.6,0-3.9,2.7-2.9,4.1c1.1,1.6,2.4,0.4,2.6-0.7c0.1-0.7-0.2-1.5-1.5-1.4c3.6-3.5,6.1,4.1,2.5,6 c-4.3,2.2-6.6-1.1-6.6-4.4c0-3.5,2.7-7,8.6-4c3.5,1.8,4.4,4.2,6.6,6.6c-19.3,7.4-5.1,30.5,6.1,23c2.9-2,4-3.4,4.3-6.5 c2.1,2.9,3,5.1,5.4,7.9c-9-1-12.1,2.7-11.9,6.5c0.3,4.9,6,9.8,11.2,4.1c3.8-4.1,1.1-8.8-3.1-8.6c-4.6,0.2-5.1,3.5-4,5 c1.1,1.5,3.6,1.5,3.9-2c-2.7,3-3.2-0.2-2-1.1c3.4-2.7,7.4,3.8,3,6.5c-4.4,2.2-7.3-1.1-7.1-4.4c0.2-3.8,4.5-7.7,15.1-3 c-9.7,9.2,2.1,26.4,14,19.6c3.1-2,4-6.1,2.9-10.7l9.5,4.5c-4,1.1-9.1,4.3-7.4,9.7c1.3,4.2,8,5.6,10.3,1.4c3.1-5.5-4.2-10.4-7.3-6 c-1.3,1.9-0.2,5,2.4,4.1c1.1-0.4,2.2-1.6,0.5-2.6c-1.1-0.6-0.8,0-0.7,0.6c0.1,0.5,0.1,1.1-1.1,0.7c-3.9-1.2,4.1-6.8,5.8,0.4 c0.4,4.1-3.9,5.4-7.2,3.4c-3.4-2-2.5-6.7,0.6-8.6c2.7-1.7,6-2.2,9.7-3.1c-0.5,8,2,13.4,9.4,15.2c7.4-1.7,9.9-7.2,9.4-15.2 c3.7,0.9,7,1.4,9.7,3.1c3,1.9,4,6.6,0.6,8.6c-3.3,1.9-7.6,0.6-7.2-3.4c1.7-7.1,9.7-1.6,5.8-0.4c-1.2,0.4-1.2-0.2-1.1-0.7 c0.1-0.6,0.4-1.2-0.7-0.6c-1.7,0.9-0.5,2.2,0.5,2.6c2.6,0.9,3.8-2.2,2.4-4.1c-3-4.3-10.4,0.5-7.3,6c2.4,4.2,9.1,2.7,10.3-1.4 c1.6-5.4-3.5-8.6-7.4-9.7l9.5-4.5c-1.2,4.6-0.2,8.7,2.8,10.7c11.9,6.8,23.7-10.4,14-19.6c10.6-4.7,14.9-0.9,15.1,3 c0.2,3.3-2.7,6.7-7.1,4.4c-4.4-2.7-0.4-9.3,3-6.5c1.1,0.9,0.7,4.1-2,1.1c0.3,3.6,2.8,3.5,3.9,2c1.1-1.5,0.6-4.8-4-5 c-4.2-0.2-7,4.5-3.1,8.6c5.2,5.6,11,0.8,11.2-4.1c0.2-3.8-2.8-7.5-11.9-6.5c2.4-2.8,3.4-5,5.4-7.9c0.3,3.1,1.4,4.5,4.3,6.5 c11.1,7.5,25.4-15.6,6.1-23c2.3-2.4,3.1-4.9,6.6-6.6c5.9-2.9,8.6,0.5,8.6,4c0,3.3-2.3,6.6-6.6,4.4c-3.6-1.9-1.1-9.5,2.5-6 c-1.3-0.1-1.6,0.7-1.5,1.4c0.2,1.1,1.5,2.2,2.6,0.7c1-1.4,0.6-4.2-2.9-4.1c-1.8,0-4,2-3.9,4.6c0.4,7.6,11.1,7.1,10.9-1.3 c-1.1-10.1-12-5.2-13.8-2.1c2.2-5.4,1.1-9.2,0.9-10.3c8.9,8.9,17.5,0.1,16.2-9.3c0.1-0.6,0.1-1.2,0.1-1.8v0 c0-8.6-8.1-15.7-16.4-7.4c0.2-1.1,1.3-4.9-0.9-10.3c1.8,3.1,12.7,8,13.8-2.1c0.3-8.5-10.5-9-10.9-1.3c-0.1,2.6,2,4.6,3.9,4.6 c3.6,0,3.9-2.7,2.9-4.1c-1.1-1.6-2.4-0.4-2.6,0.7c-0.1,0.7,0.2,1.5,1.5,1.4c-3.6,3.5-6.1-4.1-2.5-6c4.3-2.2,6.6,1.1,6.6,4.4 c0,3.5-2.7,7-8.6,4c-3.5-1.8-4.4-4.2-6.6-6.6c19.3-7.4,5.1-30.5-6.1-23c-2.9,2-4,3.4-4.3,6.5c-2.1-2.9-3-5.1-5.4-7.9 c9,1,12.1-2.7,11.9-6.5c-0.3-4.9-6-9.8-11.2-4.1c-3.8,4.1-1.1,8.8,3.1,8.6c4.6-0.2,5.1-3.5,4-5c-1.1-1.5-3.6-1.5-3.9,2 c2.7-3,3.2,0.2,2,1.1c-3.4,2.7-7.4-3.8-3-6.5c4.4-2.2,7.3,1.1,7.1,4.4c-0.2,3.8-4.5,7.7-15.1,3c9.7-9.2-2.1-26.4-14-19.6 c-3.1,2-4,6.1-2.8,10.7l-9.5-4.5c4-1.1,9.1-4.3,7.4-9.7c-1.3-4.2-8-5.6-10.3-1.4c-3.1,5.5,4.3,10.4,7.3,6c1.3-1.9,0.2-5-2.4-4.1 c-1.1,0.4-2.2,1.6-0.5,2.6c1.1,0.6,0.8,0,0.7-0.6c-0.1-0.5-0.1-1.1,1.1-0.7c3.9,1.2-4.1,6.8-5.8-0.4c-0.4-4.1,3.9-5.4,7.2-3.4 c3.4,2,2.5,6.7-0.6,8.6c-2.7,1.7-6,2.2-9.7,3.1C92.2,7.2,89.6,1.7,82.3,0z"></path> </defs> <clipPath id="SVGID_14_"> <use xlink:href="#SVGID_13_" style="overflow:visible;"></use> </clipPath> <radialGradient id="SVGID_15_" cx="3.796184e-06" cy="161.053" r="1" gradientTransform="matrix(81.395 0 0 -81.395 82.2542 13189.4355)" gradientUnits="userSpaceOnUse"> <stop offset="0" style="stop-color:#9F925E"></stop> <stop offset="1" style="stop-color:#9F925E"></stop> </radialGradient> <rect x="-1.2" y="-0.2" class="st4" width="166.8" height="161.5"></rect> </g> </svg> 